<svg fill="none" xmlns="http://www.w3.org/2000/svg" viewBox="0 0 580 580"><path fill-rule="evenodd" clip-rule="evenodd" d="M108.4 262.2a2.2 2.2 0 013 .7l12.8 20.5 1.1-.7-15.6-25c-.6-1-.3-2.3.7-3l3.6-2.2c1-.7 2.3-.3 3 .7l15.6 25 112.8-70.6-15.6-25c-.6-1-.3-2.3.7-3l3.6-2.2c1-.6 2.3-.3 3 .7l15.6 25 1-.7-13-21-.4-.8c-.2-.9.2-1.8 1-2.3l3.6-2.2c1-.7 2.3-.3 3 .7l13.1 21 1.1-.7L254 184c-.2-.2-.3-.5-.3-.7-.2-.9.2-1.8 1-2.3l3.5-2.2c1-.7 2.4-.4 3 .7l8.3 13.2 8.2-5.1c1-.7 2.4-.4 3 .7l2.2 3.5c.7 1 .4 2.4-.6 3l-8.3 5.2 8.7 13.7c.6 1 .3 2.4-.7 3l-3.6 2.3a2.2 2.2 0 01-3-.7l-8.6-13.8-1.1.7 13.5 21.6c.6 1 .3 2.4-.7 3l-3.6 2.2a2.2 2.2 0 01-3-.7l-13.5-21.6-1.1.7 16 25.5c.6 1 .3 2.4-.7 3l-3.6 2.3c-1 .6-2.4.3-3-.7l-16-25.5-112.8 70.5 16 25.5c.6 1 .3 2.4-.7 3l-3.6 2.2c-1 .7-2.3.4-3-.6l-16-25.6-1 .7 13.5 21.6.2.8c.2.8-.1 1.7-1 2.2l-3.5 2.3c-1 .6-2.4.3-3-.7l-13.5-21.6-1.1.7 8.6 13.8a2.2 2.2 0 01-.7 3l-3.6 2.2c-1 .6-2.3.3-3-.7l-8.6-13.8-8.8 5.5c-1 .6-2.3.3-3-.7l-2.2-3.6c-.6-1-.3-2.3.7-3l8.8-5.4-8.3-13.3c-.6-1-.3-2.3.7-3l3.6-2.2a2.2 2.2 0 013 .7l8.2 13.2 1.1-.7-12.8-20.5c-.6-1-.3-2.3.7-3l3.6-2.2zm-6.9 17a.7.7 0 01.3-1l3.5-2.3c.4-.2.8 0 1 .2l21.5 34.3c.2.4 0 .8-.3 1l-3.5 2.3c-.4.2-.8 0-1-.3l-21.5-34.3zm179.8-64.8c.3.4.2.8-.2 1l-3.6 2.2c-.3.3-.7.2-1-.2l-21.4-34.3a.7.7 0 01.2-1l3.6-2.2c.3-.2.8-.1 1 .2l21.4 34.3zm-176 52.2a.7.7 0 01.3-1l3.6-2.2c.3-.2.8 0 1 .2L141 313c.2.4.1.8-.2 1l-3.6 2.2c-.3.3-.8.2-1-.2l-30.8-49.4zM278 227.5c.2.3 0 .8-.3 1l-3.5 2.2c-.4.2-.8.1-1-.2l-31.3-50a.7.7 0 01.3-1l3.5-2.2c.4-.2.8 0 1 .2l31.3 50zm-167 29.4a.7.7 0 01.3-1l3.5-2.2c.4-.2.8-.1 1 .2l36.2 57.8c.2.3 0 .8-.3 1l-3.6 2.2c-.3.2-.7.1-1-.2l-36-57.8zm161-20.3c.2.4.1.8-.2 1l-3.6 2.2c-.3.3-.8.2-1-.2l-36-57.7a.7.7 0 01.1-1l3.6-2.3c.4-.2.8 0 1 .3l36.1 57.7zM269.3 449l-2-.5a.7.7 0 00-1 .5l-14.1 48.3c-.2.4 0 .8.4 1l2 .5c.5.1.9-.1 1-.5l14.2-48.3a.7.7 0 00-.5-1zm-1.6-2c-1.2-.3-2.4.4-2.7 1.6l-14.2 48.3c-.4 1.2.3 2.4 1.4 2.7l2 .6c1.2.3 2.4-.3 2.8-1.5l6.2-21.3 96.5 28.4-6.3 21.3c-.3 1.1.3 2.4 1.5 2.7l2 .6c1.2.3 2.4-.3 2.7-1.5l6.3-21.3 1 .3-5.4 18c-.3 1.1.4 2.3 1.5 2.7l2 .6c1.2.3 2.4-.4 2.7-1.5l5.3-18 1 .3-3.3 11.3c-.4 1.1.3 2.3 1.4 2.7l2 .6c1.2.3 2.4-.3 2.8-1.5l3.3-11.3 7.1 2.1c.8.3 1.7-.2 2-1l.9-3.3c.2-.8-.2-1.6-1-1.9l-7.2-2 3.2-10.9c.3-1.1-.3-2.3-1.5-2.7l-2-.6c-1.2-.3-2.4.3-2.7 1.5l-3.2 10.8-1-.3L380 486c.3-1.1-.3-2.3-1.5-2.7l-2-.6c-1.2-.3-2.4.4-2.7 1.5l-5.1 17.5-1-.3 6.1-20.8c.4-1.2-.3-2.4-1.4-2.7l-2-.6c-1.2-.4-2.4.3-2.8 1.5l-6.1 20.8-96.4-28.4 6-20.8c.4-1.2-.2-2.4-1.4-2.7l-2-.6zm-8.7 3.2l2 .6c.4.1.6.5.5.9l-12.1 41.2c-.1.4-.5.6-.9.5l-2-.6a.7.7 0 01-.5-1l12-41.1c.2-.4.6-.6 1-.5zm-2.3 0a2.2 2.2 0 012.7-1.4l2 .6c1.2.3 1.8 1.5 1.5 2.7l-5 17 1 .3-1.9 6.2-1-.3-5.2 18a2.2 2.2 0 01-2.7 1.4l-2-.5a2.2 2.2 0 01-1.5-2.7l5.3-18-1-.3-3.3 11.3a2.2 2.2 0 01-2.7 1.5l-2-.6a2.2 2.2 0 01-1.5-2.7l3.3-11.3-7.6-2.3c-.8-.2-1.3-1-1-1.8l1-3.4c.2-.7 1-1.2 1.8-1l7.6 2.3 3.2-10.8a2.2 2.2 0 012.7-1.5l2 .6c1.2.3 1.9 1.5 1.5 2.7l-3.2 10.8 1 .3 5-17zM357.3 529l-2-.6a.7.7 0 01-.5-.9l14.2-48.3c.1-.4.5-.6 1-.5l2 .6c.3 0 .5.5.4.9l-14.2 48.3c-.1.4-.5.6-.9.5zm8.2-1.2l-2-.6a.7.7 0 01-.6-1l12.3-41.6c.1-.4.5-.6.9-.5l2 .6c.4.1.6.5.5 1l-12.2 41.6c-.2.4-.6.6-1 .5zm9-4.6l-2-.6a.7.7 0 01-.4-1l8.3-28.2c.1-.4.5-.6.9-.5l2 .6c.4.1.6.5.5 1l-8.3 28.2c-.1.4-.5.6-1 .5zm-124.5-69l2 .7c.4.1.6.5.5.9l-8.3 28.3c-.1.4-.5.6-.9.5l-2-.6a.7.7 0 01-.5-1l8.3-28.2c.1-.4.5-.6.9-.5zM370.8 68.3l-.6.3a10.5 10.5 0 00-6.4 10c0 1 .8 1.9 1.9 2.3l12.7 5.4c1.1.5 2.3.4 3-.3a10.5 10.5 0 002.7-11.6l-.3-.6 5.1-4.1c2.5-2 2-6-1-7.3l-11.8-5a4.3 4.3 0 00-6 4.4l.7 6.5zm-1-.6a11.4 11.4 0 00-7 10.9c.1 1.4 1.2 2.6 2.5 3.2l12.7 5.3c1.4.6 3 .6 4-.4a11.4 11.4 0 003-12.6l4.5-3.7c3-2.5 2.4-7.3-1.3-8.8l-11.7-5a5.2 5.2 0 00-7.2 5.3l.5 5.8zm13 4.3l-.6-.6a10.5 10.5 0 00-8.6-3.6h-.9l-.6-5.5a3 3 0 014.1-3.1l10.3 4.3a3 3 0 01.7 5.2l-4.4 3.3zm-9.3-5.2l-.5-4.6a2 2 0 012.9-2.2l10.3 4.4a2 2 0 01.4 3.5l-3.7 2.9a11.4 11.4 0 00-9.4-4zM301 436.4l-14.7 2.2a7.6 7.6 0 01-8.3-10.3l11.2-29a7.6 7.6 0 0113-2l9.3 11.3-1.3 1.2a29.7 29.7 0 00-9.5 24.9l.2 1.7zm-21.9-7.7a6.5 6.5 0 007 8.8l13.6-2v-.7a30.9 30.9 0 019.8-25.8l.5-.5-8.6-10.5a6.5 6.5 0 00-11.1 1.8l-11.2 29z" fill="currentColor"/><path fill-rule="evenodd" clip-rule="evenodd" d="M302.4 444.8l-.3-.4-16.7 2a13.7 13.7 0 01-14.5-18.6l12.8-33a13.7 13.7 0 0123.2-4l10.9 12.7.5-.2a30.9 30.9 0 0134.3 6.8c2.6 2.7 3 6.8 1.6 10.4l-13.8 35.6c-1.4 3.6-4.4 6.4-8.1 6.6a30.9 30.9 0 01-30-17.9zm1-.4l-.6-1.3-17.6 2.2a12.6 12.6 0 01-13.2-17l12.8-33.1c3.4-9 15-10.9 21.3-3.7l11.4 13.4 1.2-.6a29.8 29.8 0 0133.1 6.6c2.2 2.2 2.6 5.8 1.3 9.2l-13.7 35.6c-1.4 3.3-4 5.7-7.2 6a29.8 29.8 0 01-28.8-17.3zM529.1 225.8l-.4 1a15.5 15.5 0 003.4 17c1 1 2.8 1.3 4.5.6l19-7.2c1.7-.7 2.8-2 2.9-3.5a15.5 15.5 0 00-9-15l-1-.4 1.3-9.6c.6-4.7-4-8.4-8.5-6.7l-17.6 6.8a6.3 6.3 0 00-2 10.6l7.4 6.4zm-1.6.4a16.8 16.8 0 003.7 18.6c1.5 1.5 3.9 1.7 5.9 1l19-7.4c2-.7 3.6-2.4 3.8-4.6a16.8 16.8 0 00-9.8-16.4l1-8.5c.8-5.8-4.9-10.2-10.3-8.1l-17.6 6.7a7.7 7.7 0 00-2.3 13l6.6 5.7zm18.2-8.8h-1.3a15.4 15.4 0 00-12.9 5l-.8.9-6.4-5.2a4.4 4.4 0 011.2-7.6l15.4-6a4.4 4.4 0 016 4.9l-1.2 8zm-15.2 4l-5.3-4.4a3 3 0 01.8-5.2l15.4-6a3 3 0 014.2 3.4l-1 6.8a16.8 16.8 0 00-14 5.4zM345.3 217.6l-1 .7a18 18 0 00-6.6 19.2c.4 1.7 2 3 4.1 3.3l23.3 3.8c2.1.4 4-.3 5-1.7a18 18 0 00-.2-20.4l-.6-1 6.8-8.8a7.3 7.3 0 00-4.6-11.7l-21.7-3.7c-5.4-.9-9.9 4.4-8.1 9.6l3.6 10.7zm-1.9-.6a19.6 19.6 0 00-7.3 21c.7 2.4 3 4 5.4 4.3l23.4 4c2.5.3 5.1-.4 6.5-2.5a19.6 19.6 0 00-.2-22.2l6.2-8a9 9 0 00-5.6-14.2l-21.7-3.6a9 9 0 00-10 11.6l3.3 9.6zm23.5 2l-1.3-.9a18 18 0 00-15.9-2.5l-1.4.4-3.3-9a5.2 5.2 0 015.7-6.9l19 3.2c3.9.7 5.6 5.3 3.1 8.4l-6 7.3zm-17.6-5l-2.8-7.5a3.6 3.6 0 014-4.8l18.9 3.2c2.7.4 4 3.6 2.2 5.8l-5 6.2a19.6 19.6 0 00-17.3-2.8zM38.8 242.2l-.6.3a10.5 10.5 0 00-6.6 9.8c0 1 .8 2 1.9 2.4l12.6 5.6c1 .5 2.3.4 3-.3a10.5 10.5 0 002.9-11.5l-.3-.6 5.2-4c2.5-2 2-6-.9-7.3l-11.7-5.2c-3-1.3-6.2 1-6 4.3l.5 6.5zm-1-.6a11.4 11.4 0 00-7.1 10.7c0 1.5 1 2.7 2.4 3.3l12.6 5.6c1.3.6 3 .5 4-.5a11.4 11.4 0 003.1-12.5l4.7-3.6a5.2 5.2 0 00-1.1-8.8l-11.7-5.2a5.2 5.2 0 00-7.3 5.1l.4 6zm13 4.5l-.6-.6a10.5 10.5 0 00-8.6-3.8h-.9l-.5-5.5a3 3 0 014.2-3l10.2 4.5a3 3 0 01.6 5.1l-4.5 3.3zm-9.2-5.3L41 236a2 2 0 013-2.1l10.1 4.5a2 2 0 01.4 3.6l-3.7 2.8a11.4 11.4 0 00-9.3-4.1zM309.8 255l.3.1v-.1l1.4.5 1 .3 1 .6v-.2l1.7 1.3.5.4 1 .9v-.4l1.6 2.2 2.1 2.6-.5-.1.6 1.2.2.4 1 2.3h-.5.3l.3 1.1.2.7.4 2h-.1l.1 1v1l.2 1.6-.1 1v1.2l-.2 1.3-.2 1.1-.2 1.3-.3 1.1-.3 1-.4 1.5-.4 1-.4 1-.8 1.5-.4.7-.6 1h.1l-1.3 1.7-.3.5h-.2v.2l-.3.3-.4.5h.3l-2.2 1.8-.3.3-1.5 1v.1l-.2.2-2.6 1.7v-.4l-1.2.4-.6.2-2 .7v-.3l-1.1.1v.1H302v-.2a11.7 11.7 0 01-1-.2v.1l-1.5-.6-.9-.3-1-.6v.2l-1.7-1.4-.5-.4-1-1v.5l-1.8-2.8-.1-.2a19 19 0 01-.7-1l-.2-.4-1.3-2.5h.3l-.5-1.1h-.3l.3-1.4h-.3l-.5-2.4-.1-.8-.2-1.7v-3.6h.1l.1-1.1.2-1.2.2-1.2.3-1 .4-1.4.3-1c.1-.4.2-.8.4-1l-.1-.1.7-1.5.3-.8c.4-.7.7-1.5 1.2-2.2l.4-.6.7-.1.2-1 .2-.3h-.2l1.8-1.8.3-.4 1-.9h-.5l2.6-1.5 2-1.5v.4l1.2-.5.6-.2 2-.7v.2l1.2-.1h1l1.5-.1v.1l.7.1zm-1 1.4h.8a10.6 10.6 0 011.3.4l-.6 3-3-.6.5-3 1 .2zm-1.5-.1a11.4 11.4 0 00-3.2.5l-.3 1.7 3 .6.5-2.8zm-3.6 2.7l-.6 3 3 .6.6-3-3-.6zm2.9 3.7l3 .6.6-3.1-3-.6-.6 3zm-.1.4l-.6 3 3 .6.6-3-3-.6zm3 3.7l3 .6.5-3-3-.6-.6 3zm3.6-2.9l.6-3-3-.6-.6 3 3 .6zm.7-3.5l.3-1.9a12.6 12.6 0 00-2.8-1.5l-.6 2.8 3 .6zm.4.1l2.5.5a15 15 0 00-2.2-2.2l-.3 1.7zm3 1l-3-.6-.6 3 3 .7.6-3zm.3.5a16.7 16.7 0 011.2 1.9l.5 1.2-2.2-.5.5-2.6zm-.5 3l-.6 3.1 3 .6.4-2.1-.4-1-2.4-.5zm3.1 2.5l-.2 1.3.6.1a22.6 22.6 0 00-.4-1.4zm.5 1.9l-.8-.2-.6 3 1.8.4v-1l-.1-.4a24.3 24.3 0 00-.3-1.8zm-1.3-.3l-3-.5-.6 3 3 .6.6-3zm-3.4-.6l-3-.6-.7 3 3 .6.7-3zm-3.5-.7l-3-.5-.7 3 3.1.6.6-3zm-3.5-.6l-3-.6-.6 3 3 .6.6-3zm-3.7 2.9l-.6 3 3 .6.6-3-3-.6zm-.7 3.5l-.6 3 3.1.6.6-3-3-.6zm3 3.7l3 .5.6-3-3-.6-.7 3zm3.6-3l.6-3-3-.6-.6 3 3 .7zm-.2 3.6l3 .6.6-3-3-.6-.6 3zm3.7-2.9l.6-3-3-.6-.6 3 3 .6zm.5.1l3 .6.6-3-3-.6-.6 3zm3.4.7l2.5.4a27 27 0 000-3.1l-1.9-.4-.6 3zm-3.5-.3l-.6 3 3 .7.6-3-3-.7zm2.9 3.7l2.6.5a19.7 19.7 0 00.2-.8v-.2-.4a24.5 24.5 0 00.2-1.6l-2.4-.5-.6 3zm-14-2.2l-.6 3 3 .7.6-3-3-.7zm-.7 3.5l-.6 3 3 .6.7-3-3-.6zm3 3.7l3 .6.5-3-3-.6-.6 3zm3.6-2.9l.6-3-3-.6-.6 3 3 .6zm-.2 3.6l3 .6.6-3-3-.7-.6 3zm3.7-3l.6-3-3-.5-.6 3 3 .6zm.4.2l3 .5.7-3-3-.6-.7 3zm3.5.6l2.4.5a27.3 27.3 0 00.8-3l-2.6-.5-.6 3zm0 .5l-.6 3 1.5.3a24.7 24.7 0 001.3-3l-2.3-.3zm-1.2 3.4l-3-.6-.6 3 3 .6.6-3zm-.1 3l.2.1a20.8 20.8 0 001-1.5h.1a22 22 0 00.7-1.2l-1.4-.4-.6 3zm0 .5zm-.5 0l-3-.6-.6 3 1.5.3a19.5 19.5 0 002-2v-.8zm-3.7 2.9l-.3 1.3a15.5 15.5 0 001.5-1.1l-1.2-.2zm-.5-.1l-3-.6-.7 3.9a14 14 0 003.4-1.6l.3-1.7zm-3.4-.7l-3-.6-1 5.1a11.1 11.1 0 003.2-.4l.8-4zm3.5.2l.6-3-3-.6-.6 3 3 .6zm-2.9-3.7l-3-.6-.6 3.1 3 .6.6-3zm-3.5-.6l-3-.6-.6 3 3 .6.6-3zm-3.7 2.9l-1 5a10.5 10.5 0 003.1.7l1-5.1-3-.6zm.3-3.6l-3.1-.6-.6 3 3 .7.7-3zm-3.8 3l-.7 3.8a13.2 13.2 0 002.8 1.7l1-5-3-.6zm-1 3.5l.6-3.7-3-.5-.3 1.3.1.1a17 17 0 002.5 2.8zm-3-3.5l.1-.8-.7-.2c.1.4.3.7.6 1zm.2-1.3l.6-3-3-.6a19.7 19.7 0 001.3 3.4l1.1.2zm.7-3.4l.5-3-3-.7-.6 3 3 .7zm-3.4-1.1l.5-2.7-1-.1a23 23 0 00.5 2.8zm3.8 1.1l3 .6.6-3-3-.6-.6 3zm3.5.7l3 .6.6-3-3-.7-.6 3.1zm3.7-3l.6-3-3-.5-.7 3 3 .6zm-3-3.6l-3-.6-.5 3 3 .6.6-3zm3.7.2l.5-3-3-.6-.6 3 3 .6zm-3-3.7l-3-.6-.6 3 3 .6.6-3zm.1-.4l.6-3-3-.7-.6 3 3 .7zm.7-3.5l.6-3-3-.6-.7 3 3 .6zm.4 0l3 .6.6-3-3-.6-.6 3zm3.7-2.8l.6-3-3-.7-.6 3 3 .7zm-2.9-3.8l-3-.5-.6 3 3 .6.6-3zm-3.5-.6l-3-.6-.6 3 3 .6.6-3zm-3.7 2.9l-.5 3 3 .6.6-3-3-.6zm-.6 3.5l-.6 3 3 .6.6-3-3-.6zm-.7 3.5l-.6 3 3 .6.7-3-3-.6zm-.6 3.4l-.6 3.1 3 .6.6-3-3-.7zm-.5 0l-1.8-.4a27 27 0 000 2.1l.1 1.1 1.1.2.6-3zm.7-3.5l-2.2-.4a27.5 27.5 0 00-.3 3l1.9.4.6-3zm0-.5l.6-3-2-.4a27.7 27.7 0 00-.6 2.6l-.1.4 2.2.4zm.7-3.4l.6-3-1.5-.4a28.2 28.2 0 00-1 3l2 .4zm1.3-6.6l-.6.1a10.3 10.3 0 00-.7 1.2v.2l-.3.4-.2.4-.2.5 1.4.3.6-3zm3.5.3l.6-3-2-.5a19.7 19.7 0 00-1.3 1.5l-.3 1.4 3 .6zm-1-3.9l1.7.4.4-2.2h-.1a19.4 19.4 0 00-2 1.8zm3.1-2.5l-.5.3-.5 2.7 3 .5.6-3-2.6-.5zm2.7 0l.3-1.4a14.3 14.3 0 00-2.3 1l2 .4zm-3.8 3.4l-.5 3 3 .6.6-3-3-.6zm3 3.7l3 .6.6-3-3-.7-.7 3.1zm-1.5 7.4l-.5 3 3 .6.6-3-3-.6zm-6 13.3l-.7 3 3 .6.7-3-3-.6zm10 1.4l.6-3-3-.6-.6 3 3 .6zm.5.1l3 .6.6-3-3-.6-.6 3zm3.4.7l3 .6.7-3.1-3-.6-.7 3zm7.2-2.3l.6-3-3-.6-.6 3 3 .6zm.4-21.1l-3-.6-.6 3 3 .7.6-3.1zm6.4 1.5v-.1a24.6 24.6 0 00-2.9-6v-.1l-.1-.2v-.1a94.5 94.5 0 01-5.9-20v-.3l5-26.4-2.8-.6-5 26.7-.2.2a95.4 95.4 0 01-11.7 16l-.2.2h-.1l-1 .8-.9-1.2 1.1-.7a84.3 84.3 0 0011.5-15.8L315 211l5.7 1.1-5.3 27.6a103.8 103.8 0 005.7 19.7v.1a21.3 21.3 0 013.2 6.4l.1.3c1.2 4.3 1.5 9 .5 14-2.5 13.4-13.2 22.7-23.7 20.7-4.7-.9-8.5-3.8-11.2-7.9l-.3-.5c-.8-1.3-1.4-2.6-2-4l1.4-.6a18.4 18.4 0 002.1 4.2v.1c2.5 3.8 6 6.5 10.2 7.3 9.5 1.8 19.6-6.6 22.1-19.6.9-4.7.6-9.3-.5-13.2v-.2zm-35.7 20.2l.2.8a43 43 0 00.3 1l1.4-.6a22.4 22.4 0 01-.3-.8l-.2-.8m-1.4.4a26.8 26.8 0 01-1-5.8l1.4-.1a27.3 27.3 0 001 5.4m-2.5-9a30.2 30.2 0 000 3.7l1.5-.1a30.7 30.7 0 010-3.4v-.5l.3-3v-.3l.1-.5a30.4 30.4 0 015.2-11.8 25.4 25.4 0 012.6-3 23.5 23.5 0 011.7-1.4l.5-.3-.9-1.2-.5.4a23 23 0 00-1.8 1.5 24.7 24.7 0 00-2.7 3 27.4 27.4 0 00-4.8 9.6v.4a32 32 0 00-.7 2.6v.4l-.1.4a31.5 31.5 0 00-.4 3.6zm15.6-23.2l2.3-2.9a92.3 92.3 0 007-10.1l2-3.3.6 3.7a107.7 107.7 0 003.1 12.1l1.2 3.6-3.3-1.9a14.2 14.2 0 00-9.2-1.7l-3.7.5zm11.9-1a15.5 15.5 0 00-8.5-1 88 88 0 007.1-10.3 114.6 114.6 0 003.2 12.3 16 16 0 00-1.8-1zM136.8 119.6v-.2l-1.3-.7-.9-.5-.7-.2.2-.2-2.1-.4-.7-.2h-.7l.2-.4-2.7.2h-3.4l.5.5-.8.2-.5.1-2.4.7.1.2-.6.3-.7.3-1.8 1h.1l-.5.4-.8.5-1.3 1-.4.5-.8.8-1 1-.4.5-.8 1-.8 1c0 .2-.2.3-.3.5l-.8 1.3-.5.9-.3.6-.7 1.6-.4.8c0 .2 0 .4-.2.6l-.5 2-.2.7h.1l-.1.5v.2l-.3-.2v3.3l.2 1.5v.4l.4 3.1.2-.3.3.7.3.6.8 2 .2-.2c0 .2.2.4.4.5v.1l.6.8 1 1h.2l.4.4 1.3.8.9.5c.2 0 .4 0 .6.2l-.1.2 2.2.3.6.1.8.1-.3.4 3.3-.5h.3l1-.1.4-.1 2.8-.6-.3-.2.7-.2.3.2.8-1 .2.2 1.8-1 .7-.5 1.5-1c0-.2.3-.3.4-.4l.8-.7 1.1-1 .4-.5.8-1 .9-1 .3-.5.8-1.1.7-1c0-.2.1-.3.3-.5l.7-1.5.4-.8.8-2 .2-.6-.3-.5.5-.7v-.1l.2.1.2-2.5v-.5-.8l.5.4-.6-3-.2-2.7-.3.4-.2-.8-.3-.6-.8-2-.1.1a12 12 0 00-.4-.5l-.6-.8-1-1.3v.2l-.5-.4zm-.5 1.5l-.4-.3-.1-.1-.9-.6-1.7 2 2.2 1.8 1.6-2-.7-.8zm1 1a10.6 10.6 0 011.5 2.6l-1 1.2-2.1-1.8 1.6-2zm.3 4l-1.7 2.2-2.2-1.7 1.7-2.2 2.2 1.8zm-4.2.2l-2.1-1.7 1.7-2.1 2.1 1.7-1.7 2.1zm-2.4-2l-2.2-1.7 1.7-2.1 2.2 1.7-1.7 2.2zm-.2-4.1l1-1.4 1.2.3.2.1a9.8 9.8 0 011.4.7l-1.7 2-2.1-1.7zm-.3-.3l-1.8-1.4a13.3 13.3 0 011.5 0h.3l.8.2h.2l-1 1.2zm-2.4-1.4l2.1 1.7-1.7 2.2-2.1-1.8 1.7-2.1zm-.6 0l-.9.2h-.3a16 16 0 00-1.8.4l1.6 1.3 1.4-1.9zm-1.7 2.2l-1.7 2.1-2.2-1.7 1.2-1.5 1-.3 1.7 1.4zm-4.2.2l-.4-.4 1-.5h.2l-.8.9zm0 .5l2.2 1.7-1.7 2.2-2.2-1.7 1.8-2.2zm-2 2l-1.2-1.1a21.5 21.5 0 011.2-.9l.2-.1a9.5 9.5 0 011-.6l.6.5-1.8 2.1zm4.5 0l2.2 1.7-1.8 2.2-2.1-1.8 1.7-2.1zm2.5 2l2.1 1.7-1.7 2.2-2.2-1.8 1.8-2.1zm2.4 2l2.2 1.7-1.8 2.1-2.1-1.7 1.7-2.1zm.2 4.1l-1.7 2.2-2.2-1.7 1.8-2.2 2.1 1.7zm-2 2.5l-1.7 2.1-2.2-1.7 1.8-2.1 2.1 1.7zm-4.2.2l-2.1-1.8 1.7-2.1 2.2 1.7-1.8 2.2zm-.1-4.2l1.7-2.2 2.1 1.8-1.7 2.1-2.1-1.7zm-2.3 2.2l-2.2-1.8 1.8-2.1 2.1 1.7-1.7 2.2zm-.2-4.2l1.8-2.2 2 1.8-1.6 2.1-2.2-1.7zm-2.3 2.2l-2.1-1.7 1.7-2.2 2.2 1.7-1.8 2.2zm-.1-4.2l1.7-2.1 2.1 1.7-1.7 2.1-2.1-1.7zm-.3-.2l-1.8-1.4a23 23 0 012.1-1.9l1.4 1.1-1.7 2.2zm-2 2.4l-1.9-1.5.3-.3.2-.3.2-.2.3-.3.1-.2.8-.8 1.7 1.5-1.7 2.1zm-.3.3l-1.7 2.2-1.6-1.4a23.1 23.1 0 011.5-2.3l1.8 1.5zm-2 2.5l-1.7 2.1-1.1-.9a21.3 21.3 0 011.3-2.5l1.5 1.3zm-3 1.6l1 .8-1.7 2.2-.1-.2.3-1.1v-.3a15.6 15.6 0 01.5-1.4zm1.4 1l2.1 1.8-1.7 2.1-2.2-1.7 1.8-2.1zm-2.3 2.3zm.3.2l2.1 1.7-1.7 2.2-1.1-.9a17.3 17.3 0 01.2-2.4l.5-.6zm.2 4.2l-.8 1v-.3l-.1-1.3.9.6zm.3.2l2.1 1.8-2.2 2.7a12.1 12.1 0 01-1-3.2l1-1.3zm2.4 2l2.2 1.8-3 3.5a10.2 10.2 0 01-1.5-2.4l2.3-2.9zm2.5 2l2.1 1.7-2.9 3.6a9.3 9.3 0 01-1.3-.9l-.9-.8 3-3.6zm-4.7-4.3l1.7-2.1 2.2 1.7-1.8 2.2-2-1.8zm4.2-.1l2.1 1.7-1.7 2.2-2.1-1.8 1.7-2.1zm2.4 2l2.2 1.7-1.7 2.1-2.2-1.7 1.7-2.1zm2.5 2l2.1 1.7-1.7 2.1-2.1-1.7 1.7-2.2zm.2 4.1l-2.3 2.8a11.4 11.4 0 01-2.7-1l2.8-3.5 2.2 1.7zM118 151l2-2.5 2.2 1.7-.7 1a12 12 0 01-1.5 0h-.3a13.1 13.1 0 01-1.7-.2zm4 0l.5-.5.6.4-1 .2zm.8-.8l1.7-2.2 2.1 1.7a18.6 18.6 0 01-3 1l-.8-.5zm2-2.5l1.7-2.1 2.1 1.7-1.7 2.1-2.2-1.7zm2.6 1.7l1.5-1.9.7.6a19.3 19.3 0 01-1.3.8l-.2.1-.7.4zm1.5-2.4l-2.2-1.8 1.8-2 2.1 1.6-1.7 2.2zm2-2l1.3 1.1a23.6 23.6 0 01-.9.8l-.2.2-.2.1-.9.6-.8-.6 1.7-2.1zm-6.5 2.5l-2.1-1.8 1.7-2.1 2.2 1.7-1.8 2.2zm-2.4-2l-2.2-1.8 1.8-2.1 2.1 1.7-1.7 2.2zm-.2-4.2l1.8-2.2 2.1 1.8-1.7 2.1-2.2-1.7zm4.2-.2l2.2 1.8-1.8 2.1-2.1-1.7 1.7-2.2zm-2.2-2.3l1.7-2.1 2.2 1.7-1.8 2.2-2.1-1.8zm4.2-.1l2.1 1.7-1.7 2.2-2.1-1.8 1.7-2.1zm.2-.3l1.8-2.2 2.1 1.8-1.7 2.1-2.2-1.7zm2-2.5l1.8-2.1 2.1 1.7-1.7 2.2-2.2-1.8zm-.3-.2l-2.1-1.8 1.7-2.1 2.1 1.7-1.7 2.2zm-.2-4.2l1.8-2.2 2.1 1.8-1.7 2.1-2.2-1.7zm4.2-.2l2.2 1.8-1.8 2.1-2.1-1.7 1.7-2.2zm2.5 2l2.1 1.7-1.7 2.2-2.1-1.8 1.7-2.1zm.1 4.2l-1.7 2.1-2.1-1.7 1.7-2.1 2.1 1.7zm-2 2.4l-1.7 2.2-2.1-1.8 1.7-2 2.2 1.6zm-2 2.5l-1.7 2.1-2.1-1.7 1.7-2.1 2.2 1.7zm.4.2l1.5 1.3a25.7 25.7 0 01-1 1l-.1.2-.8.8-1.3-1.1 1.7-2.2zm.2-.3l1.8-2.1 1.4 1.2-.6.8-.1.2a23.5 23.5 0 01-1 1.2l-1.5-1.3zm2-2.4l1.8-2.2 1 .9a22.5 22.5 0 01-1.4 2.4l-1.4-1.1zm3-1.7l-1-.8 1.7-2.1.3.5a9.4 9.4 0 01-.8 2l-.2.4zm-1.5-5.2l1.8-2.1 1.4 1.1c0 .4 0 .8-.2 1.2v.5l-.8 1-2.2-1.7zm2-2.5l1.3-1.5a14.4 14.4 0 010 2.3v.3l-1.3-1zm1.1-2.6l.1.6-1.5 1.8-2.1-1.7 1.7-2.2 1.8 1.5zm-1.6-1.8l.9-1a11.2 11.2 0 01.6 2.2l-1.5-1.2zm0 4.5l-1.8 2.2-2.1-1.8 1.7-2.1 2.2 1.7zm-4.2.2l-2.2-1.8 1.8-2.1 2.1 1.7-1.7 2.2zm-2.5-2l-2.1-1.7 1.7-2.2 2.2 1.7-1.8 2.2zm-2.4-2l-2.2-1.7 1.8-2.2 2.1 1.8-1.7 2.1zm.7 9.2l-1.8 2.1-2.1-1.7 1.7-2.2 2.2 1.8zm-5.5 11.8l-1.7 2.1-2.2-1.7 1.7-2.2 2.2 1.8zm-6.8-6l1.7-2.2 2.2 1.7-1.8 2.2-2.1-1.7zm-.3-.3l-2.2-1.7 1.8-2.2 2.1 1.8-1.7 2.1zm-4.6-3.7l1.7-2.2 2.2 1.8-1.8 2.1-2.1-1.7zm-.5-4.4l1.8-2.2 2.1 1.7-1.7 2.2-2.2-1.7zm4.2-.2l2.1 1.7-1.7 2.2-2.1-1.8 1.7-2.1zm2.5 2l2.1 1.7-1.7 2.2-2.2-1.8 1.8-2.1zm2.4 2l2.2 1.7-1.8 2.1-2.1-1.7 1.7-2.1zm.3-.3l1.7-2.2 2.1 1.7-1.7 2.2-2.1-1.7zm-2.5-2l1.7-2.2 2.2 1.8-1.8 2.1-2.1-1.7zm-2.4-2l1.7-2.2 2.1 1.8-1.7 2.1-2.1-1.7zm-2.5-2l1.7-2.1 2.2 1.7-1.8 2.1-2.1-1.7zm10.4-7.8l1.7-2.2 2.2 1.8-1.8 2.1-2.1-1.7zm-3-5.5h.2a21.7 21.7 0 015.7-1.5h.2l.2-.1a84.2 84.2 0 0017-7.6l.2-.2 14.9-18.4 1.7 1.4-15 18.6-.2.2a84.5 84.5 0 00-4 17.2l-.1.2v.2l.1 1h1.5l-.1-1.2a74.8 74.8 0 014-16.9L163.6 91l-4-3.2-15.7 19.4a92.2 92.2 0 01-16.7 7.5 18.8 18.8 0 00-6.2 1.6h-.3v.2c-3.5 1.5-6.9 4.1-9.7 7.5-7.6 9.5-7.8 22-.4 28 3.3 2.7 7.5 3.7 11.8 3.1h.5a21 21 0 004.6-1.4c.3 0 .6-.2.8-.3a24.2 24.2 0 007.3-5 28.2 28.2 0 003.8-4.5l-1.2-.8-1.3 1.8-.3.3-.2.3a26.4 26.4 0 01-8.7 6.6m13.5-11.2a61 61 0 01-1.6 2.7l-.2.3-1.2-.8a56.3 56.3 0 001.7-2.9l1.3.7zm0 0l-1.3-.7c.4-.8.8-1.6 1-2.5l.2-.3.8-2.8m0 0a22 22 0 00.5-3.4 16.8 16.8 0 000-1.9v-.5l1.4-.2v.6m-16 22.9c-.3 0-.5.2-.8.3l-.3.1a32.5 32.5 0 01-4 1l-.5.2c-4 .5-7.8-.4-10.7-2.7-6.5-5.4-6.7-17 .7-26a25 25 0 019.1-7.2h.2m20.7 7.4l.7-3.6a81.8 81.8 0 012.8-10.6l1.3-3.6-3.3 1.9a95.8 95.8 0 01-10 4.8l-3.5 1.5 3.6 1.2a12.5 12.5 0 016.4 5.3l2 3zm-6.1-9a13.7 13.7 0 015.4 5 78.9 78.9 0 012.9-10.6 94.2 94.2 0 01-10.2 4.9l1.9.8zM247 527.5v-.2l-1.3-.7-.9-.6-.7-.2.2-.2-2.1-.4-.7-.1-.7-.1.2-.4-2.7.3h-3.4l.5.4-.8.2-.5.2-2.4.7.1.1-.6.3-.7.4-1.8.9h.1l-.5.4-.8.6-1.3 1-.4.5-.8.7-1 1-.4.6-.8 1-.8 1-.3.5-.8 1.2-.5 1-.3.5-.7 1.6-.4.8c0 .2 0 .5-.2.7v-.1l-.5 2.1-.2.6h.1v.1l-.1.4v.3l-.3-.2V547.6l.2 1.6v.3l.4 3.2.2-.4.3.7.3.7.8 2 .2-.2.4.5.6.8 1 1.1a6.8 6.8 0 00.6.3v.1l1.3.7.9.5.6.2-.1.2 2.2.4.6.1h.8l-.3.4 3.3-.4h.3l1-.2h.4l2.8-.6-.3-.2.7-.3.3.2.8-1 .2.2 1.8-1 .7-.4 1.5-1c0-.2.3-.3.4-.5l.8-.7 1.1-1 .4-.5.8-.9.9-1c0-.2.2-.3.3-.5l.8-1.2.7-.9.3-.6.7-1.4.4-.9c.3-.6.6-1.2.8-2l.2-.6-.3-.5.5-.6v-.2l.2.2.2-2.5v-.6-.8l.5.4-.6-3-.2-2.7-.3.4-.2-.7-.3-.6-.8-2.1-.1.2a12 12 0 00-.4-.6l-.6-.8-1-1.2v.1l-.5-.3zm-.5 1.4l-.4-.3h-.1a9 9 0 00-.9-.7l-1.7 2.1 2.2 1.7 1.6-2-.7-.8zm1 1.1a10.6 10.6 0 011.5 2.5l-1 1.2-2.1-1.7 1.6-2zm.3 4l-1.7 2.2-2.2-1.8 1.7-2.1 2.2 1.7zm-4.2.2l-2.1-1.7 1.7-2.2 2.1 1.7-1.7 2.2zm-2.4-2l-2.2-1.7 1.7-2.2 2.2 1.8-1.7 2.1zm-.2-4.2l1-1.3c.5 0 .8.2 1.2.3h.2a9.8 9.8 0 011.4.7l-1.7 2-2.1-1.7zm-.3-.2l-1.8-1.5a13.3 13.3 0 011.5.1h.3l.8.1h.2l-1 1.3zm-2.4-1.4l2.1 1.7-1.7 2.1-2.1-1.7 1.7-2.1zm-.6 0a15.7 15.7 0 00-1.5.2h-.2a14.1 14.1 0 00-1.3.4l1.6 1.2 1.4-1.8zm-1.7 2.2l-1.7 2.1-2.2-1.7 1.2-1.5 1-.4 1.7 1.5zm-4.2.1l-.4-.3 1-.6h.2l-.8 1zm0 .6l2.2 1.7-1.7 2.1-2.2-1.7 1.8-2.1zm-2 1.9l-1.2-1a21.5 21.5 0 011.2-1h.2l.2-.2.8-.4.6.4-1.8 2.2zm4.5 0l2.2 1.8-1.8 2.1-2.1-1.7 1.7-2.1zm2.5 2l2.1 1.8-1.7 2.1-2.1-1.7 1.7-2.2zm2.4 2l2.2 1.8-1.8 2-2.1-1.6 1.7-2.2zm.2 4.2l-1.7 2.1-2.2-1.7 1.8-2.1 2.1 1.7zm-2 2.5l-1.7 2.1-2.2-1.7 1.8-2.2 2.1 1.8zm-4.2.1l-2.1-1.7 1.7-2.2 2.2 1.8-1.8 2.1zm-.1-4.2l1.7-2.1 2.1 1.7-1.7 2.2-2.1-1.8zm-2.3 2.2l-2.2-1.7 1.8-2.1 2.1 1.7-1.7 2.1zm-.2-4.2l1.8-2.1 2 1.7-1.6 2.2-2.2-1.8zm-2.3 2.2l-2.1-1.7 1.7-2.1 2.2 1.7-1.8 2.1zm-.1-4.1l1.7-2.2 2.1 1.8-1.7 2.1-2.1-1.7zm-.3-.3l-1.8-1.4a23 23 0 012.1-1.8l1.4 1-1.7 2.2zm-2 2.5l-1.9-1.5.3-.3.2-.3.2-.2.3-.3.1-.2.8-.8 1.7 1.4-1.7 2.2zm-.3.3l-1.7 2.1-1.6-1.3.5-1 .2-.1a21 21 0 01.8-1.2l1.8 1.5zm-2 2.4L222 541l-1.1-1a20.9 20.9 0 011.3-2.5l1.5 1.3zm-3 1.6l1 .9-1.7 2.1-.1-.1c0-.4.1-.8.3-1.1v-.3l.2-.4v-.3l.3-.8zm1.4 1.1l2.1 1.8-1.7 2.1-2.2-1.7 1.8-2.2zm-2.3 2.2zm.3.3l2.1 1.7-1.7 2.1-1.1-.8v-.1a17.4 17.4 0 01.2-2.3l.5-.6zm.2 4.2l-.8.9v-.2l-.1-1.4.9.7zm.3.2l2.1 1.7-2.2 2.8a12 12 0 01-1-3.3l1-1.2zm2.4 2l2.2 1.7-3 3.6a10 10 0 01-1.5-2.4l2.3-3zm2.5 2l2.1 1.7-2.9 3.6a9.3 9.3 0 01-1.3-1l-.9-.7 3-3.6zm-4.7-4.3l1.7-2.1 2.2 1.7-1.8 2.1-2-1.7zm4.2-.2l2.1 1.8-1.7 2.1-2.1-1.7 1.7-2.2zm2.4 2l2.2 1.8-1.7 2.1-2.2-1.7 1.7-2.2zm2.5 2l2.1 1.7-1.7 2.2-2.1-1.8 1.7-2.1zm.2 4.2l-2.3 2.7a11.4 11.4 0 01-2.7-1l2.8-3.4 2.2 1.7zm-1.8 2.8l2-2.6 2.2 1.8-.7.9a16.2 16.2 0 01-3.5-.1zm4 0l.5-.6.6.5-1 .1zm.8-.9l1.7-2.1 2.1 1.7a18.6 18.6 0 01-3 1l-.8-.6zm2-2.4l1.7-2.2 2.1 1.7-1.7 2.2-2.2-1.7zm2.6 1.6l1.5-1.8.7.6a20 20 0 01-1.3.8l-.2.1-.7.3zm1.5-2.4l-2.2-1.7 1.8-2.1 2.1 1.7-1.7 2.1zm2-1.9l1.3 1-.8.8-.3.2a36.6 36.6 0 01-1 .8h-.1l-.8-.6 1.7-2.2zm-6.5 2.4l-2.1-1.7 1.7-2.2 2.2 1.8-1.8 2.1zm-2.4-2l-2.2-1.7 1.8-2.2 2.1 1.8-1.7 2.1zm-.2-4.2l1.8-2.1 2.1 1.7-1.7 2.2-2.2-1.8zm4.2-.1l2.2 1.7-1.8 2.2-2.1-1.8 1.7-2.1zm-2.2-2.3l1.7-2.2 2.2 1.8-1.8 2.1-2.1-1.7zm4.2-.2l2.1 1.8-1.7 2.1-2.1-1.7 1.7-2.2zm.2-.3l1.8-2.1 2.1 1.7-1.7 2.2-2.2-1.8zm2-2.4l1.8-2.2 2.1 1.8-1.7 2.1-2.2-1.7zm-.3-.3l-2.1-1.7 1.7-2.2 2.1 1.8-1.7 2.1zm-.2-4.2l1.8-2.1 2.1 1.7-1.7 2.2-2.2-1.8zm4.2-.1l2.2 1.7-1.8 2.2-2.1-1.8 1.7-2.1zm2.5 2l2.1 1.7-1.7 2.1-2.1-1.7 1.7-2.1zm.1 4.1l-1.7 2.2-2.1-1.7 1.7-2.2 2.1 1.7zm-2 2.5l-1.7 2.1-2.1-1.7 1.7-2.1 2.2 1.7zm-2 2.4l-1.7 2.2-2.1-1.7 1.7-2.2 2.2 1.7zm.4.3l1.5 1.2a25.7 25.7 0 01-2 2l-1.2-1 1.7-2.2zm.2-.3l1.8-2.2 1.4 1.2-.6.9-.1.2a32.4 32.4 0 01-1 1.1l-1.5-1.2zm2-2.5l1.8-2.1 1 .8a26.4 26.4 0 01-1.4 2.5l-1.4-1.2zm3-1.6l-1-.8 1.7-2.2.3.5a9.5 9.5 0 01-.8 2l-.2.5zm-1.5-5.2l1.8-2.2 1.4 1.2c0 .4 0 .8-.2 1.2v.5l-.8 1-2.2-1.7zm2-2.5l1.3-1.5a14.7 14.7 0 010 2.5l-1.3-1zm1.1-2.6l.1.5-1.5 1.9-2.1-1.8 1.7-2.1 1.8 1.5zm-1.6-1.8l.9-1a11.2 11.2 0 01.6 2.2l-1.5-1.2zm0 4.5l-1.8 2.1-2.1-1.7 1.7-2.2 2.2 1.8zm-4.2.1l-2.2-1.7 1.8-2.2 2.1 1.8-1.7 2.1zm-2.5-2l-2.1-1.7 1.7-2.1 2.2 1.7-1.8 2.1zm-2.4-2L237 533l1.8-2.1 2.1 1.7-1.7 2.2zm.7 9.2L238 546l-2.1-1.8 1.7-2.1 2.2 1.7zm-5.5 11.8l-1.7 2.2-2.2-1.8 1.7-2.1 2.2 1.7zm-6.8-6l1.7-2.1 2.2 1.7-1.8 2.1-2.1-1.7zm-.3-.2l-2.2-1.8 1.8-2.1 2.1 1.7-1.7 2.2zm-4.6-3.8l1.7-2.1 2.2 1.7-1.8 2.2-2.1-1.8zm-.5-4.4l1.8-2.1 2.1 1.7-1.7 2.1-2.2-1.7zm4.2-.1l2.1 1.7-1.7 2.1-2.1-1.7 1.7-2.1zm2.5 2l2.1 1.7-1.7 2.1-2.2-1.7 1.8-2.2zm2.4 2l2.1 1.7-1.7 2.1-2.1-1.7 1.7-2.2zm.3-.4l1.7-2.1 2.1 1.7-1.7 2.1-2.1-1.7zm-2.5-2l1.7-2.1 2.2 1.7-1.8 2.2-2.1-1.8zm-2.4-2l1.7-2.1 2.1 1.7-1.7 2.2-2.1-1.8zm-2.5-2l1.7-2 2.2 1.7-1.8 2.1-2.1-1.7zm10.4-7.8l1.7-2.1 2.2 1.7-1.8 2.2-2.1-1.8zm-3-5.4h.2a21.7 21.7 0 015.7-1.6h.4a84.2 84.2 0 0017-7.7l.2-.1 14.9-18.5 1.7 1.4-15 18.7-.2.2a84.5 84.5 0 00-4 17.2l-.1.2v.2l.1 1 1.5-.1-.1-1.1a74.8 74.8 0 014-17l15.9-19.5-4-3.2L254 515a92.2 92.2 0 01-16.7 7.5 18.7 18.7 0 00-6.2 1.6h-.3v.1c-3.5 1.6-6.9 4.2-9.7 7.6-7.6 9.5-7.8 22-.4 28 3.3 2.7 7.5 3.6 11.8 3h.5a21 21 0 004.6-1.3l.8-.3 1.7-.9.4-.2 2.4-1.6.3-.2a27 27 0 006.3-6.6l-1.2-.8a27 27 0 01-6 6.2l-.2.3a24.1 24.1 0 01-4.3 2.4m13.5-11.2l-.2.4-1.4 2.4-.2.3-1.2-.8a33.8 33.8 0 001.7-3l1.3.7zm0 0l-1.3-.6c.4-.9.8-1.7 1-2.5l.2-.4.8-2.7m0 0a22 22 0 00.5-3.4 16.8 16.8 0 000-2v-.5l1.4-.1v.6m-16 22.8l-.8.3-.3.2a32.5 32.5 0 01-4 1l-.5.1c-4 .6-7.8-.3-10.7-2.7-6.5-5.3-6.7-16.9.7-26a25 25 0 019.1-7.2h.2m20.7 7.4l.7-3.6a82 82 0 012.8-10.5l1.3-3.6-3.3 1.9a95.8 95.8 0 01-10 4.8l-3.5 1.4 3.6 1.3a12.5 12.5 0 016.4 5.2l2 3.1zm-6.1-8.9a13.7 13.7 0 015.4 5 78.9 78.9 0 012.9-10.7 94 94 0 01-10.2 5l1.9.7zM176.2 101.6c.9 1.9 2.1 3.4 3.7 4.6a12.6 12.6 0 0024.7-2.7c3.2-.7 7.3-1 9.1 1.2 3.2 4 10.3 3.7 13.3 0 2.9-3.7 9.4-4.8 13.2 0 3.8 4.8 6.6 0 6.6 0v-5s-3.7 3.6-6.6 0c-3-3.7-10.3-3.7-13.2 0-3 3.6-10.3 3.6-13.3 0-1.8-2.3-6.5-1.8-9.7-1-.8-2.4-2.3-4.4-4.2-5.9l-.5-1.3c2.6-2 6.1-4 8.8-2.8 4.5 2.2 10.8-1 12-5.7a8.5 8.5 0 0112-5.6c5.4 2.7 5.9-2.8 5.9-2.8l-2.2-4.6s-1.7 4.9-6 2.8c-4.2-2-10.8 1.1-12 5.7-1 4.5-7.7 7.7-11.9 5.6-2.6-1.3-6.6 1.2-9.2 3.3a12.6 12.6 0 00-20.5 14.2zm7.3-14.1c3.8-1.8 8-1 11 1.8L196 88a11.9 11.9 0 10-16.5 17 12.7 12.7 0 01-.1-3.5 9.7 9.7 0 014-14zm17 12.5l-.5-1.2a12.6 12.6 0 01-14.7 9.9 8.9 8.9 0 0015.5-4.1h-.3V100zm1 4.3a9.7 9.7 0 11-.4-4.9 36 36 0 012.1-.6 11.9 11.9 0 10.7 4.8l-2.3.7zm-8.8 2.7a11.8 11.8 0 01-8.1.7c-.6-.8-1-1.8-1.2-2.8a9.7 9.7 0 0013.9-9.3 9 9 0 012.1 2.2c-.5 3.8-3 7.4-6.7 9.2zm-1.3-2.7a9 9 0 01-8.2-.3 9 9 0 0113.3-9 9 9 0 01-5 9.3zm2.7-14.2l.1.3c-.7-.2-1.4-.2-2.2-.2-6 0-11.2 4.3-12.3 10l-.1-.2A9 9 0 01194 90zM488.5 195.6c2.1-.4 4-1.2 5.6-2.4a13.3 13.3 0 004.2-26c.2-3.4 1-7.6 3.8-8.8 5-2.1 6.6-9.5 3.7-13.5a9 9 0 013.8-13.4c5.9-2.6 1.8-6.8 1.8-6.8l-5.1-1.4s2.7 4.8-1.9 6.8c-4.5 2-6.6 9.4-3.7 13.4 2.9 4 .8 11.5-3.7 13.4-2.8 1.3-3.6 6.2-3.8 9.7-2.5.2-5 1-7 2.6h-1.6c-1.3-3-2.4-7.3-.3-9.6 3.5-4 2-11.3-2.4-13.7a9 9 0 01-2.4-13.8c4.3-4.8-1.2-6.9-1.2-6.9l-5.2 1s4.5 3.1 1.2 6.8c-3.3 3.7-2 11.4 2.4 13.8 4.3 2.4 5.6 10 2.3 13.7-2 2.3-.6 7 .8 10.3a13.3 13.3 0 008.7 24.8zM476 184.2c-.7-4.3 1.4-8.4 5-10.5a38 38 0 01-1-2.1 12.5 12.5 0 1012.7 21.5 13.4 13.4 0 01-3.6-.8l-1.3.3c-5.5 1-10.8-2.8-11.8-8.4zm17.5-13.7c-.5 0-.9 0-1.3.2a13.3 13.3 0 015.9 17.7 9.4 9.4 0 00.2-16.9v.3l-4.8-1.3zm4.7 0a10.2 10.2 0 11-5-.8v-2.3a12.5 12.5 0 105 .7v2.5zm.2 9.9c.6 3 0 6-1.5 8.4-1 .4-2 .5-3.2.5a10.2 10.2 0 00-5.5-16.8c.8-.7 1.8-1.2 2.8-1.5 3.8 1.6 6.7 5 7.4 9.4zm-3 .5c.5 3.1-.6 6.2-2.7 8.3l-1.2-.3a9.4 9.4 0 01-4.1-15.7c4 .5 7.3 3.6 8 7.7zm-13.8-6.7h.4a13.3 13.3 0 006 17.5h-.3a9.4 9.4 0 01-6-17.5zM288.3 341.3c1 2 2.3 3.6 3.9 4.8 1.6 5.6 6.8 9.8 13 9.8 7.2 0 13.1-5.6 13.5-12.7 3.4-.7 7.8-1 9.7 1.3 3.4 4.2 11 3.9 14.2 0 3.1-3.8 10-5 14.2 0 4 5 7 0 7 0v-5.3s-3.9 3.9-7 0c-3.2-3.8-11-3.8-14.2 0-3.1 3.9-11 3.9-14.2 0-2-2.4-7-1.8-10.4-1-.9-2.5-2.4-4.6-4.5-6.1l-.5-1.5c2.8-2 6.6-4.2 9.4-3 4.8 2.4 11.6-1 12.8-5.9a9.1 9.1 0 0112.8-6c6 3 6.4-2.9 6.4-2.9l-2.3-4.8s-1.9 5.1-6.4 3c-4.5-2.2-11.6 1.1-12.8 6-1.2 4.7-8.3 8-12.8 5.9-2.8-1.4-7.1 1.3-10 3.4-3.8-3.9-10-5.2-15.4-2.7-6.7 3.1-9.6 11-6.4 17.7zm7.8-14.9c4-1.9 8.7-1 11.7 2l1.7-1.6a12.9 12.9 0 00-14.4-2.5 12.4 12.4 0 00-3.2 20.5 13.2 13.2 0 01-.1-3.7l-.7-1.1c-2.4-5.1-.2-11.2 5-13.6zm18.2 13.2l-.6-1.3c-.8 4-3.4 7.5-7.4 9.4a13.6 13.6 0 01-8.3 1 9.6 9.6 0 0016.6-4.3l-.3.1v-5zm1.1 4.5c-.7 5-5 8.6-10.2 8.6-5.7 0-10.3-4.5-10.3-10.2 0-5.6 4.6-10.1 10.3-10.1 4.5 0 8.3 2.7 9.7 6.6a39 39 0 012.3-.6 12.7 12.7 0 00-12-8.4c-7 0-12.7 5.6-12.7 12.5 0 7 5.7 12.5 12.7 12.5 6.7 0 12.2-5 12.7-11.6l-2.5.7zM306 347a12.8 12.8 0 01-8.7.8c-.5-.9-1-1.8-1.3-3a10.2 10.2 0 0015-9.8c.8.7 1.6 1.5 2.2 2.4-.5 4-3.1 7.8-7.2 9.6zm-1.3-2.8a9.7 9.7 0 01-8.8-.3l-.1-1.3c0-5.1 4.2-9.3 9.5-9.3 1.8 0 3.4.4 4.8 1.2.5 4-1.6 8-5.4 9.7zm2.8-15l.2.3-2.4-.2c-6.5 0-12 4.6-13.2 10.7l-.1-.2a9.3 9.3 0 014.5-12.6 9.7 9.7 0 0111 2z" fill="currentColor"/><path d="M188 155.8c1 1.6-.3 4.2-3 5.7-2.6 1.5-5.5 1.5-6.4-.2-1-1.6.4-4.1 3-5.7 2.6-1.5 5.5-1.4 6.5.2zM200.4 148.6c1 1.7-.4 4.2-3 5.7-2.7 1.6-5.6 1.5-6.5-.1-1-1.6.4-4.2 3-5.7 2.6-1.6 5.5-1.5 6.5.1z" fill="currentColor"/><path fill-rule="evenodd" clip-rule="evenodd" d="M177.7 161.5l.2.2c.6 1.2 1.9 1.7 3.2 1.8 1.4 0 3-.4 4.4-1.2 1.4-.9 2.6-2 3.2-3.3a4 4 0 00.3-3.3l.6-.6.8-.2a4 4 0 003 1.4c1.4 0 3-.3 4.4-1.2 1.4-.8 2.6-2 3.2-3.2.3-.7.5-1.4.5-2a11.4 11.4 0 002.3-.3c.6 0 1.2-.3 1.6-.7.3-.2.4-.4.5-.7.2-.3.2-.6 0-1 0-.4-.2-.8-.6-1.2l-1.2-1.3a27.2 27.2 0 00-9.3-5.4h-1.4c-1.3.1-2.7.7-4 1.2l-.2.1a16 16 0 01-4 1.3l-.8.1c-2.6.3-5.2.6-8.7 2.5-2 1.1-3.5 3.2-4.3 5.4-.9 2.2-1.1 4.6-.4 6.4a8.3 8.3 0 004 4 15.6 15.6 0 002.7 1.2zm-5.7-11.3c-.8 2-1 4.3-.4 6a7.5 7.5 0 003.6 3.5 14.8 14.8 0 002.3 1c-.1-.9 0-1.8.5-2.6a8.1 8.1 0 013.2-3.2c1.4-.9 3-1.3 4.4-1.2 1 0 1.9.3 2.6 1 .2-.3.4-.6.7-.7.3-.2.6-.3 1-.3-.3-1 0-1.9.4-2.8a8.1 8.1 0 013.2-3.2c1.4-.8 3-1.2 4.4-1.2 1.3 0 2.5.6 3.2 1.7l.3.9h.1a10.2 10.2 0 002.1-.2c.6-.1 1-.3 1.4-.5l.3-.5v-.6c0-.2-.2-.5-.5-.8a26.4 26.4 0 00-10.1-6.4c-.4-.2-.8-.2-1-.2a19.4 19.4 0 01-8 5.7c-3.2 1.2-6.8 1.5-9.8-.3a9.9 9.9 0 00-3.9 4.9zm4.6-5.3c2.6 1.4 5.9 1.2 8.9 0 2.8-1 5.3-2.9 7-4.7-1 .2-1.8.6-2.8 1l-.2.1a16.6 16.6 0 01-5 1.4c-2.4.3-4.8.5-7.9 2.2zm8.7 17c2.8-1.7 4.2-4.5 3.1-6.3-1-1.8-4.2-2-7-.4-2.8 1.7-4.2 4.5-3.2 6.3 1 1.9 4.2 2 7 .4zm12.3-7.2c2.8-1.6 4.2-4.4 3.1-6.3-1-1.8-4.2-2-7-.3-2.8 1.6-4.2 4.4-3.2 6.3 1 1.8 4.2 2 7 .3zM419.3 482.1c-.3 0-.5.2-.6.5l-1.1 13.6-.6.5a24 24 0 00-8.8 16.5c-1.1 12.3 6.1 22.4 15.3 23.2 5.2.4 9.3-1.2 12.4-4.2a23 23 0 005.9-11.4c-1.6-.4-3-1.3-4-2.3-2.3-1.9-4-4.8-5.2-8-1-3-1.3-5.9-1-8.5a2.5 2.5 0 012.7-2.2c1.5.2 2.5 1.6 2.3 3-.2 1.7 0 3.8.8 6 .8 2.3 2 4.1 3.2 5.4 1.2 1.3 2.4 1.8 3.3 1.8a5 5 0 00.5-.1h.1l1.4-.8c.2-.3.5-.7.6-1.4.4-1.5.2-4-.6-8.2-.8-3.9-3.6-7-7.4-9.2l-1-.5 1-11.5c0-.3-.1-.5-.4-.6l-18.8-1.6zm22.8 37.1c.5.2 1 .3 1.6.3l-.3 1.6c-2.5 10.5-9.3 17.9-20 17-10.4-1-18-12.2-16.9-25 .7-7.5 4.6-13.8 9.5-17.7l1.1-13c.1-1.2 1.2-2 2.3-2l8.7.8 17.3-50.5c.2-.5.5-.7.9-.9h.9c.3.1.7.4.8.8l10.2 27.6 8.1-2c1.2-.3 2.3.4 2.6 1.5l3.2 12.6c5.4 3 10.4 8.6 12.2 15.9 3.2 12.5-2.5 24.8-12.6 27.4-10.5 2.7-18.4-3.5-22.4-13.4-.3-.5-.5-1-.6-1.6.5 0 1-.3 1.5-.5a9.3 9.3 0 003-2.4c1.6-2 2.8-4.9 3.4-8 .4-2.8.3-5.6-.4-7.9a.9.9 0 00-1-.5c-.5 0-.8.7-.7 1.2l-1.5.4c-.4-1.3.3-2.8 1.8-3.2 1.2-.3 2.6.3 3 1.7.7 2.5.9 5.5.4 8.5-.6 3.4-2 6.6-3.8 8.8-1 1.2-2.2 2.2-3.6 3a23 23 0 007.6 10.2 15 15 0 0013 2.1c8.8-2.3 14.3-13.4 11.3-25.4a24 24 0 00-11.4-14.9l-.6-.3-3.4-13.3c0-.3-.3-.4-.6-.4l-18.2 4.7c-.3.1-.5.4-.4.7l2.8 11.2-.8.6c-3.4 2.8-5.7 6.4-5.9 10.3-.1 4.3.2 6.8.7 8.2.3.6.6 1 .9 1.2a3.3 3.3 0 001.5.6 22 22 0 01.6 0c1-.1 2-.9 3-2.3 1-1.5 1.9-3.5 2.3-5.8.3-2.3.2-4.5-.2-6.2l1.5-.4c.6 2 .7 4.3.3 6.8-.9 5.2-3.7 9-6.7 9.6l-1.1-.1c-3.4-.6-4.7-3-4.4-11.6.2-4.6 2.8-8.6 6.5-11.5l-2.6-10.2c-.3-1.2.4-2.4 1.6-2.6l8-2.1-9.3-25.4-16.6 48 8 .7c1.2.1 2 1.2 2 2.3l-1 10.5c4.2 2.4 7.4 5.8 8.3 10.3 1.7 8.5.8 11-2.5 12.2a7 7 0 01-1 .3c-3 0-6.5-3.4-8.1-8.4a16 16 0 01-.9-6.8c0-.5-.3-1-.9-1-.4-.1-.8.2-.9.7-.3 2.3 0 5 1 7.7 1 3.1 2.7 5.7 4.6 7.4 1 .9 2.1 1.5 3.3 2zM318.3 47.2c-.1 0-.3 0-.4.2L315 54l-.3.1c-3 1-5.8 3.5-7.3 6.9-2.6 6-.7 12.4 3.8 14.3a8 8 0 007 0c1.9-1 3.6-2.6 5-4.8a5.8 5.8 0 01-1.7-1.8 10 10 0 01-1.3-5c0-1.6.3-3.1 1-4.4.3-.7 1-1 1.7-.7.7.4 1 1.3.7 2a7.6 7.6 0 000 6.5c.4.7 1 1.2 1.4 1.4a3.3 3.3 0 00.3 0c.4 0 .7 0 .9-.2.1 0 .3-.2.5-.6.4-.7.8-2 1-4.2.3-2-.5-4.1-2.1-5.9l-.4-.4 2.5-5.7c0-.1 0-.3-.2-.3l-9.2-4zm5.2 22.7l.8.4-.4.7c-3 5-7.7 7.5-13 5.2-5-2.2-7-9.1-4.3-15.5 1.6-3.6 4.7-6.2 7.8-7.3l2.8-6.4c.2-.5.9-.8 1.4-.5l4.3 1.8 17.3-22.6.6-.3.5.1.2.6.5 15.7 4.5.3c.6 0 1 .6 1 1.2l-.5 7c2.2 2.4 3.8 6 3.5 10-.5 6.9-5.5 12.1-11 11.7-5.8-.4-8.7-4.8-9.1-10.5v-1c.2.1.5.1.8 0a5 5 0 001.9-.7c1.2-.7 2.3-2 3.1-3.4a9.5 9.5 0 001.2-4c0-.3-.2-.5-.5-.5s-.5.2-.5.5h-.9c0-.8.7-1.4 1.5-1.4.7 0 1.3.6 1.2 1.4 0 1.4-.5 3-1.2 4.4-.9 1.6-2.1 3-3.4 3.8-.7.4-1.5.7-2.3.8.1 2.6.9 4.8 2 6.5a8 8 0 006.3 3.3c4.8.3 9.5-4.4 10-11 .3-3.6-1.1-7-3.2-9.4l-.3-.3.6-7.2c0-.2-.1-.3-.3-.3l-10-.8c-.2 0-.3.1-.3.3l-.5 6.1-.5.2c-2.2.9-4 2.3-4.7 4.3-.8 2.1-1 3.4-1 4.2 0 .4 0 .6.2.8a1.7 1.7 0 00.6.5h.1a7.3 7.3 0 00.3.1c.4.1 1 0 1.8-.6s1.6-1.5 2.2-2.6c.6-1.1.9-2.2 1-3.1h.8c0 1-.4 2.3-1 3.5-1.4 2.5-3.5 4-5 3.7l-.6-.2c-1.6-1-1.8-2.4-.2-6.7a8.4 8.4 0 015.2-4.7l.4-5.6c0-.6.6-1 1.2-1l4.5.3-.5-14.4L324 48.8l3.9 1.7c.5.2.8.9.6 1.5l-2.3 5.1a8.4 8.4 0 012.4 6.6c-.5 4.6-1.4 5.7-3.3 5.7h-.5c-1.6-.5-2.7-2.8-2.7-5.6 0-1.3.2-2.6.7-3.6.1-.2 0-.5-.3-.7a.5.5 0 00-.6.3 9.5 9.5 0 00-.8 4c0 1.8.4 3.4 1.1 4.6a5 5 0 001.3 1.5zM390 292.6c-.3 0-.4.1-.4.3l-.8 9.2-.4.3c-3 2.4-5.5 6.4-6 11-.7 8.3 4.2 15.1 10.3 15.6 3.5.3 6.3-.8 8.3-2.8 1.9-1.8 3.3-4.5 4-7.6-1-.3-2-.9-2.7-1.5a12.6 12.6 0 01-3.5-5.5c-.6-1.9-.8-3.9-.6-5.6 0-1 1-1.6 1.8-1.5 1 0 1.6 1 1.5 2 0 1.1 0 2.6.6 4a9.6 9.6 0 002 3.7c1 .8 1.7 1.1 2.3 1.2h.2a5.9 5.9 0 00.2-.1l1-.6c.1-.2.3-.4.4-.9.2-1 .1-2.6-.4-5.5-.6-2.6-2.4-4.7-5-6.1l-.6-.4.6-7.7c0-.2 0-.4-.3-.4l-12.6-1zm15.2 25l1 .1-.1 1c-1.7 7-6.2 12-13.5 11.4-6.9-.6-12-8-11.2-16.7.4-5 3-9.3 6.3-11.9l.8-8.7c0-.8.7-1.3 1.5-1.3l5.8.5 11.7-33.9c0-.3.3-.5.5-.5h.6c.3 0 .5.2.6.5l6.8 18.5 5.5-1.4c.7-.2 1.5.3 1.7 1l2.1 8.5c3.7 2 7 5.8 8.2 10.7 2.1 8.4-1.7 16.6-8.4 18.3-7 1.8-12.4-2.3-15-9l-.5-1c.4 0 .7-.2 1-.4.8-.3 1.5-1 2-1.6 1.1-1.3 2-3.2 2.3-5.4a12 12 0 00-.2-5.2c0-.3-.4-.5-.7-.4-.4.1-.6.5-.5.8l-1 .3c-.3-.9.2-1.9 1.2-2.1.9-.3 1.8.2 2 1 .5 1.8.6 3.8.3 5.8-.4 2.3-1.3 4.4-2.6 6-.6.7-1.4 1.4-2.4 1.9 1.3 3 3 5.3 5.2 6.9 2.3 1.6 5.2 2.2 8.6 1.4 6-1.6 9.7-9 7.7-17a16 16 0 00-7.7-10l-.4-.3-2.3-8.9c0-.2-.2-.3-.4-.2l-12.2 3.1c-.2 0-.3.3-.3.4l2 7.6-.6.4c-2.3 1.9-3.8 4.2-4 7 0 2.8.1 4.4.5 5.4l.6.8a2.2 2.2 0 001 .4h.4c.6 0 1.3-.6 2-1.5.7-1 1.3-2.4 1.5-4 .3-1.5.2-3-.1-4l1-.4c.4 1.3.5 3 .2 4.6-.6 3.5-2.5 6.1-4.5 6.4h-.7c-2.3-.4-3.1-2-3-7.8.2-3.1 2-5.7 4.4-7.7l-1.7-6.9c-.2-.8.2-1.5 1-1.7l5.4-1.4-6.3-17-11 32.2 5.3.4c.8.1 1.4.8 1.3 1.6l-.6 7c2.8 1.6 5 3.9 5.5 7 1.2 5.6.6 7.3-1.6 8l-.7.3c-2 0-4.3-2.3-5.5-5.6-.5-1.6-.7-3.2-.5-4.6 0-.3-.3-.7-.6-.7s-.6.2-.7.5a12 12 0 00.7 5.2c.7 2 1.8 3.8 3.1 5 .7.5 1.4 1 2.2 1.2z" fill="currentColor"/><path d="M461 284.2c1.7 2.1 2.4 5.1 1 7.6l-5.6 9.8c-.5.9-.2 2 .7 2.5l3.7 2c.9.5 2 0 2.4-.9l4.5-10.4c1.1-2.6 4-3.8 6.6-3.6 2 .2 4 0 6-.4L457.8 279c.8 1.9 1.8 3.6 3.1 5.2zm-2.4-22.2a20.5 20.5 0 00-1.6 14l26.2 13.9c4.2-1.8 7.8-5 10-9.5 2.5-5 3.8-9.9 2.7-14.5-1-4.6-4.3-8.9-11-12.5-6.8-3.6-12.2-3.9-16.4-2a21.3 21.3 0 00-10 10.6zm-18.4 1.5c0 2.9 2.4 5.3 5.2 5.3 2.8 0 5.1-2.4 5.1-5.3 0-3-2.3-5.3-5.1-5.3a5.2 5.2 0 00-5.1 5.3z" stroke="currentColor" stroke-width=".5"/><path fill-rule="evenodd" clip-rule="evenodd" d="M214.7 435.4c-.1-2.5-2.1-4.4-4.4-5.1-1-.4-2-.8-3-1.4l17.4-1.3c-.8.6-1.7 1.2-2.7 1.7-2 1.1-3.6 3.3-3.2 5.8l1.5 9.1c0 .6-.3 1-.8 1l-3.4.3a1 1 0 01-1-1l-.4-9zm11.2-8l.8-.7-21.5 1.7a16.6 16.6 0 005 2.5c2 .7 3.7 2.4 3.8 4.6l.4 9.1c0 1 .8 1.7 1.8 1.7l3.3-.3c1 0 1.6-1 1.5-1.9l-1.5-9c-.3-2.2 1-4.2 2.9-5.1 1.3-.7 2.4-1.5 3.5-2.5zm-21.9-1a16 16 0 01-4.6-9.8c-.4-4.4 0-8.3 2-11.2 2-3 5.6-5 11.7-5.5 6-.4 10 1 12.6 3.6 2.6 2.6 3.8 6.4 4.3 10.8.4 3.8-.6 7.3-2.5 10.2l-23.5 1.8zm-.2.7a16.8 16.8 0 01-5.1-10.4c-1-9 1.9-16.5 14.3-17.5 12.5-1 16.8 6 17.7 15 .4 4-.7 8-2.8 11l-24.1 1.9zm-11.3-.5c-1.6 1-4 .5-5-1.3-1.2-1.7-.7-4 1-5.1 1.7-1 4-.5 5.1 1.2 1.1 1.8.6 4-1 5.2zm.4.6c-2 1.3-4.7.6-6-1.5-1.4-2-.8-4.8 1.2-6.1 2-1.3 4.8-.7 6.1 1.4 1.3 2.1.8 4.9-1.3 6.2zM58.8 188a12.5 12.5 0 01-12.1 9.2h-18a2.6 2.6 0 01-2.6-2.6c0-3.2 2.6-5.9 5.9-5.9h20.6l.6-2.2 5.6 1.4zm-1.9 1l-2.6-.8-.6 2H32c-2.5 0-4.4 2-4.4 4.4 0 .6.4 1.1 1 1.1h18c4.6 0 8.6-2.7 10.3-6.8zm2.4-8.7l16.8-61.9a1.4 1.4 0 10-2.7-.7l-16.8 62 2.7.6zm-4.5.3L72 117.3a2.9 2.9 0 115.5 1.5L60.4 182l-5.6-1.5zm4.6 5l.3-1.1-5.5-1.5-.3 1 5.5 1.5zM523.8 306.7a18.5 18.5 0 0019.7 10.6l26-4.1c2-.3 3.4-2.2 3.1-4.3-.7-4.7-5.1-8-9.9-7.2l-29.8 4.7-1.4-3.1-7.7 3.4zm2 .7l5-2.2 1.2 2.8 31-4.8c3.9-.7 7.6 2 8.2 6 .2 1.2-.7 2.4-2 2.6l-26 4a17 17 0 01-17.4-8.4zm-4.8-10.7l-38.7-86.4a2.7 2.7 0 115-2.2l38.7 86.4-5 2.2zm6.9-1.5l-39.3-87.7a4.2 4.2 0 00-7.6 3.4l39.2 87.7 7.7-3.4zm1.5 3.3l-7.7 3.4.7 1.4 7.6-3.3-.6-1.5z" fill="currentColor"/><path d="M464 81.1v-.4l-.4-.1-2.3-.9 2.2-5.6a15 15 0 019 15.3l-2.3 22.1a2.6 2.6 0 01-2.9 2.4 6.8 6.8 0 01-6-7.5l2.6-25.3zm-83.4-39l75 29-2.1 5.6-75.1-29a3 3 0 112.2-5.6zm76.6 36l2.2-5.6.3.1-2.1 5.7-.4-.1z" stroke="currentColor"/><path fill-rule="evenodd" clip-rule="evenodd" d="M369.1 418l1 .6c3.7 2.1 8.3 1.8 11.6-.8l11.7-9.1c1-.7 1.1-2 .4-3a4.9 4.9 0 00-6.8-.8l-13.4 10.4-1.6-1.1-2.9 3.7zm1.8-.4l1.3-1.8 1.4 1 14.1-11c1.6-1.2 4-1 5.2.7.3.4.2 1-.2 1.2L381 417c-3 2.3-7 2.5-10.1.7zm-6-4.3l-42.3-31.8a1.2 1.2 0 111.4-1.9l42.3 31.8-1.4 1.9zm3.1-2.1l-43.3-32.6a2.4 2.4 0 00-2.8 3.8l43.3 32.5 2.8-3.7zm-.5 5.5l-.7-.6 2.8-3.7.8.5-2.9 3.8zM434.4 90.2c3.9-1.3 7-1.7 7-1.7s.8 3 1 7.2c4.3-.3 7.4.2 7.4.2s0 6.2-2.4 12.7c7 2 12.1 6.2 12.1 6.2s-1.8 3.1-5 6.6a39 39 0 015.5 5.8s-10.2 10.4-22 9.6c-11.1-.7-19.6-11.6-20.3-12.4-1.1.2-14.5 3.6-23.8-2.6-9.8-6.6-11.4-21.1-11.4-21.1s10.8-3 20 .6c0-2.1.3-4.2.8-6.1a33.6 33.6 0 00-11.5-2.5 37.9 37.9 0 000 6.7l-1.4.1c-.5-4.7 0-8.3 0-8.3s6.7-.1 13.4 2.5c2-6.6 5.9-11.5 5.9-11.5s2.7 1.5 6 4.3c2.7-3.1 5.2-5 5.2-5s2.2 2.2 4.5 5.6c3.4-2.2 6.1-3.3 6.1-3.3s1.5 2.5 2.9 6.4zm-18.4 33v-.6c-3.7-2.5-11.4-8.7-13.1-17.4-.2-.8-.3-1.5-.3-2.3-3.9-1.7-8.2-2-11.8-2a40.4 40.4 0 00-6.6.9 35.2 35.2 0 001.7 6.4 25 25 0 008.8 12.3 25 25 0 0014.7 3.5 40.3 40.3 0 006.6-.8zm4.7-.6l5.3-.1A25 25 0 00440 117a25 25 0 007.2-13.3 40.3 40.3 0 001-6.6 36.3 36.3 0 00-12.1 1c.2 3 0 6.2-1 9.3-2.7 7.8-10.3 12.8-14.5 15zM436 96.7l5-.9a40.5 40.5 0 00-.8-5.6 37 37 0 00-5.4 1.4 35 35 0 011.2 5.1zM424 87.9a40.8 40.8 0 00-3.4-4.3 40 40 0 00-4 4c1.2 1 2.3 2.3 3.4 3.7 1.3-1.3 2.7-2.4 4-3.4zm-5 4.4a33.4 33.4 0 00-9-8 35.2 35.2 0 00-3.3 5.7 25 25 0 00-2.5 15 25 25 0 008 12.8c1.5 1.4 2.9 2.5 4 3.3-2-4.4-4.9-13-2.2-20.8 1-3.1 2.9-5.8 5-8zm1 31.8c-.2 0-.3.2-.4.3a35.7 35.7 0 004.7 4.7 25 25 0 0013.8 6.3 25 25 0 0014.5-4.4 40.2 40.2 0 005.3-4 38.8 38.8 0 00-4.8-4.7 27.5 27.5 0 00-10.5-5.7l-1.6 1.7c-6.7 5.8-16.5 6-21 5.8zm23.7-8.7c3.7 1 6.9 3 9.5 5a40.3 40.3 0 004.2-5.3 36.1 36.1 0 00-10.6-5 25 25 0 01-3.1 5.3zm-28.3-14.6c-1.7 5-.9 10.6.5 15a40.2 40.2 0 002.4 6.2 36.7 36.7 0 005.8-3.3 25 25 0 009.6-11.7c1.7-5.1.9-10.7-.5-15.1a40.2 40.2 0 00-2.4-6.2 36.3 36.3 0 00-5.8 3.4 25 25 0 00-9.6 11.7zM509 398.2c1.7-2.2 3.4-3.5 3.4-3.5s1.6 1.4 3.2 3.8c2.4-1.7 4.3-2.6 4.3-2.6s2.4 3.7 3.3 8.3c4.7-1.3 9.2-.8 9.2-.8s.1 2.5-.5 5.7c3.1.4 5.3 1.3 5.3 1.3s-2.1 9.8-9.2 13.6c-6.8 3.6-15.7.4-16.4.1-.5.6-7 7.4-14.8 7.1-8-.3-14.3-8.1-14.3-8.1s5.2-5.7 12-7c-.8-1.2-1.4-2.5-1.8-3.8a23 23 0 00-7.6 2.8 25.8 25.8 0 002.4 3.8c-.2.3-.5.5-.8.6-2-2.5-3-4.8-3-4.8s3.9-2.5 8.7-3.4c-1.2-4.6-.7-8.8-.7-8.8s2.1-.1 5 .4c.5-2.9 1.3-4.9 1.3-4.9s2 .5 4.6 1.7c1.1-2.6 2.3-4.2 2.3-4.2s1.9 1 4 2.7zm1.2 25.8l-.3-.3c-3-.1-9.7-1-13.9-5.4a13 13 0 01-1-1.2c-2.8.4-5.4 1.8-7.5 3.2a27.6 27.6 0 00-3.6 2.8 26.7 26.7 0 003.4 3.1 17 17 0 009.5 4 17 17 0 009.8-3.3 27.6 27.6 0 003.6-2.9zm2.5-2l3-2a17 17 0 006.3-8.2c1.1-3.6.4-7.3-.6-10.3a27.6 27.6 0 00-1.9-4.2 27.8 27.8 0 00-6.6 5c1.2 1.6 2.3 3.5 2.8 5.7 1.3 5.5-1.4 11.1-3 14zm-.5-20.6l2.6-2.3a27.5 27.5 0 00-2.5-3 26.3 26.3 0 00-2.6 2.8 24 24 0 012.5 2.5zm-10-.8a27.6 27.6 0 00-3.6-1.3 24.4 24.4 0 00-.9 3.8l3.3.9a24 24 0 011.2-3.4zm-1.4 4.4a22.9 22.9 0 00-8.1-1.5 24.5 24.5 0 00.1 4.6 17 17 0 004 9.5 17 17 0 009.3 4.6c1.3.3 2.6.4 3.5.5-2.7-1.8-7.5-5.8-8.8-11.3-.5-2.2-.4-4.4 0-6.4zm12 18v.4a21 21 0 004.4 1c3.2.5 7 .4 10.3-1.3a17 17 0 006.8-7.8 27.7 27.7 0 001.7-4.2 23.4 23.4 0 00-4.5-1c-2.4-.4-5.4-.4-8.1.4l-.4 1.6c-1.8 5.8-7.4 9.5-10.1 11zm10.7-13.6c2.5-.7 5.1-.7 7.4-.5a27.8 27.8 0 00.5-4.6 20.8 20.8 0 00-4.6.2 23 23 0 00-3.4.7c.2 1.4.3 2.8.1 4.2zm-21.7 1.8a17 17 0 005.7 8.6 27.6 27.6 0 003.7 2.7 23.3 23.3 0 002.1-4 17 17 0 001.4-10.3 17 17 0 00-5.7-8.6 27.8 27.8 0 00-3.7-2.7 27.2 27.2 0 00-2.2 4 17 17 0 00-1.3 10.3zM51.3 286.8c.6-3.5 1.5-6 1.5-6s2.7.6 6 2.1c1.5-3.3 3-5.5 3-5.5s4.8 2.5 8.8 7c4.3-4.4 9.6-6.7 9.6-6.7s1.6 2.7 3 6.6c3.6-1.5 6.6-1.9 6.6-1.9s3.8 12-1.6 20.6c-5.2 8.2-16.9 10.3-17.8 10.4-.2 1-3.1 12.5-11.7 17-9 4.7-20.7 0-20.7 0s2.1-9.4 8.7-14.9c-1.6-.9-3-2-4.3-3.1a28.9 28.9 0 00-6.6 7.7 31.4 31.4 0 005.1 2.7l-.5 1.2c-3.8-1.6-6.3-3.5-6.3-3.5s2.6-5 7.4-9c-4.2-4.3-6.4-9.2-6.4-9.2s2.3-1.5 5.7-2.7c-1.2-3.4-1.6-6-1.6-6s2.5-.9 6-1.2c-.3-3.5 0-6 0-6s2.6-.2 6 .4zm17.5 27.4l-.4-.2c-3.5 1.8-11.3 5-18.6 2.8l-1.9-.7a23.7 23.7 0 00-6.2 8.2 34.8 34.8 0 00-2.1 5.4 33.8 33.8 0 005.6 1.2c4 .6 8.8.5 13-1.6 4-2.2 6.8-6.2 8.5-9.8a34.7 34.7 0 002.1-5.3zm1.5-3.8l2-4c1.6-3.7 2.8-8.4 1.8-13-1-4.5-4.2-8.2-7.2-10.8a34.8 34.8 0 00-4.6-3.4 31.8 31.8 0 00-4.2 9.5c2.4 1 4.7 2.5 6.6 4.5 4.9 5.3 5.6 13 5.6 17.2zm-13.4-22.2c.3-1.4.8-2.8 1.3-4a34.8 34.8 0 00-4.5-1.8 30.2 30.2 0 00-1.2 4.6l4.4 1.2zm-11.5 5.5a34.8 34.8 0 00-4.7.8A31.2 31.2 0 0042 299a30 30 0 014.2-1c-.5-1.5-.8-3-1-4.4zm1.2 5.6a28.8 28.8 0 00-9.8 3.5 30.2 30.2 0 003 4.9c2.5 3.1 6 6.5 10.4 7.9 4.5 1.4 9.2.5 13-.8 1.6-.5 3-1.2 4.1-1.7-4-.3-11.8-1.6-16.6-6.8-2-2-3.2-4.5-4-7zm24.6 12.1v.5a30.2 30.2 0 005.6-1.7c3.6-1.5 7.8-4 10.3-7.9 2.5-4 2.9-8.8 2.6-12.7a34.8 34.8 0 00-.9-5.7 26.6 26.6 0 00-5.4 1.7c-3 1.2-6.2 3-8.7 5.6.3.6.5 1.3.6 2 1.7 7.4-2.1 15-4.1 18.2zm3-21.5c2.3-2.3 5.1-4 7.8-5.1v-.1a34.8 34.8 0 00-2.4-5.3 29 29 0 00-4.8 3 29 29 0 00-3.4 3c1 1.4 2 2.9 2.8 4.5zm-22.6 15.5c3.2 3.4 7.7 5 11.6 5.8a34.8 34.8 0 005.7.7 31.4 31.4 0 00-.2-5.8c-.4-4-1.8-8.6-5-12-3.1-3.4-7.7-5-11.6-5.8a34.7 34.7 0 00-5.7-.7 30.8 30.8 0 00.2 5.8c.5 4 1.8 8.6 5 12zM144.3 515.7c-3.5-.1-6.1-.8-6.1-.8s.2-2.6 1.2-6.1c-3.4-1-5.8-2.3-5.8-2.3s1.8-5.1 5.7-9.6c-5-3.7-8-8.6-8-8.6s2.4-2 6-3.9c-1.9-3.4-2.7-6.3-2.7-6.3s11.4-5.4 20.6-1.3c8.9 4 12.5 15.3 12.8 16.2 1 .1 12.8 1.4 18.5 9.2 5.9 8.2 3 20.5 3 20.5s-9.7-.8-16.1-6.5c-.7 1.7-1.5 3.3-2.5 4.7a28.9 28.9 0 008.6 5.4 30.8 30.8 0 002-5.4c.4 0 .8.2 1.2.4-1 3.9-2.6 6.7-2.6 6.7s-5.4-2-10-6c-3.6 4.7-8.2 7.5-8.2 7.5s-1.8-2-3.5-5.3c-3.2 1.7-5.8 2.5-5.8 2.5s-1-2.4-2-5.8c-3.3.7-5.9.8-5.9.8s-.5-2.5-.4-6zm24.7-21.2v.4c2.1 3.2 6.5 10.5 5.3 18l-.5 2c2.6 2.5 6 4 9 5a34.8 34.8 0 005.6 1.4 31.7 31.7 0 00.5-5.8c0-4-.8-8.7-3.5-12.5-2.7-3.8-7-6-10.8-7.2a34.8 34.8 0 00-5.6-1.3zm-4-1c-1-.4-2.6-1-4.3-1.4-3.8-1-8.6-1.6-13 0a21.5 21.5 0 00-9.7 8.7 34.8 34.8 0 00-2.8 5 28.7 28.7 0 005.4 2c1.5.4 3 .7 4.7.9.6-2.6 1.7-5 3.5-7.3 4.5-5.5 12.1-7.3 16.2-7.8zM145 510c-1.5-.1-3-.4-4.3-.8a35.1 35.1 0 00-1 4.8 31.7 31.7 0 004.7.5c0-1.4.2-3 .6-4.5zm7 10.6a35 35 0 001.4 4.6 31.3 31.3 0 004.4-2 30 30 0 01-1.6-4c-1.5.6-3 1-4.3 1.4zm5.4-2a28.7 28.7 0 004.8 9.2 28 28 0 004.4-3.7c2.8-2.8 5.7-6.7 6.4-11.3.7-4.6-.8-9.2-2.6-12.7-.8-1.6-1.6-3-2.3-4 .3 4.2.1 12-4.4 17.6-1.8 2.1-4 3.7-6.3 5zm8.6-26l.4-.1a31.3 31.3 0 00-2.4-5.2c-2-3.5-5-7.3-9.3-9.2a21.5 21.5 0 00-13-.8 34.8 34.8 0 00-5.5 1.7 31 31 0 009.2 12.9l1.9-.8c7-2.7 15.1 0 18.7 1.5zm-21.8 0c-2.6-2-4.7-4.5-6.2-7a34.7 34.7 0 00-5 3.1 30.2 30.2 0 007.2 7.3c1.1-1.3 2.5-2.4 4-3.4zm18.5 20.2c3-3.6 4-8.3 4.2-12.3a34.8 34.8 0 00-.2-5.7 28.3 28.3 0 00-5.7 1c-3.8 1-8.2 3-11.2 6.6-3 3.6-4 8.3-4.1 12.3a34.7 34.7 0 00.1 5.7 28.7 28.7 0 005.7-1c3.8-1 8.3-3 11.2-6.6zM550 329.2a1 1 0 00-.3-1.9l-9.5 1.3a1 1 0 00.2 1.8l5.2-.6 2.8 8L519 345l-1.9-2.5c2.6-.4 4.5-1.4 4.4-2.2-.1-.9-2.5-1.3-5.3-1l-1.2.3h-.1c-2.1.5-3.6 1.3-3.5 2 0 .7 1.7 1.1 3.9 1l2.4 3.3-5.1 12.3c-2-.8-4.2-1-6.4-.8A13.2 13.2 0 10521 369l13.7-1.8 14.3-27.7 4.5 12.5a13.2 13.2 0 007.6 25 13.2 13.2 0 10-6.1-25.6l-7.8-21.8 2.7-.4zm8.8 35.1c-.4.1-.9 0-1-.5l-3.8-10.6a12 12 0 006.9 22.6 12 12 0 10-5.5-23.2l3.9 10.7c.1.4 0 .8-.5 1zm-38.1-18l26.4-6.5-12.7 24.5-13.7-18zm11 19.7l-11 1.4c-.9-3.8-3.4-6.9-6.6-8.6l4.3-10.4 13.4 17.6zm-12.2 1.6c-.9-3.3-3-6-6-7.6l-3.6 8.8 9.6-1.2zm-12.1 3.2l4.7-11.5a12 12 0 107.7 9.8l-12.4 1.7zM142.7 366a.7.7 0 01-1.4.3l-1.9-6.8a.7.7 0 011.4-.4l1 3.7 6.4-.3-3.5-22.4-2.3-.5c.4 1.8.3 3.4-.3 3.6-.6.2-1.6-1.3-2.1-3.4l-.2-.9c-.3-1.7-.2-3 .3-3 .6-.2 1.3.8 1.9 2.3l2.9.8 7-7.1a9.9 9.9 0 1110 2.7l2.6 9.9-15 17.9 10-.5a9.9 9.9 0 0119.4-2 9.9 9.9 0 11-19.4 3.2l-17.3.9.5 2zm26.8-4c0-.4-.3-.6-.7-.6l-8.4.4a9 9 0 0117.6-1.7 9 9 0 11-17.6 3l8.5-.5c.3 0 .6-.3.6-.6zM146 341l3.2 20 13.2-15.9L146 341zm16.8 1.8l-2.2-8c-2.9.5-5.7-.3-7.8-2l-6 5.9 16 4.1zm-2.4-8.9a9 9 0 01-7-1.9l5-5 2 7zm-1.3-9.3l-6.6 6.6c-1-1-1.7-2.3-2-3.7a9 9 0 1111 6.2l-2.4-9zM237.4 106.8a1.2 1.2 0 01-.9-2.3l11.6-4.2a1.2 1.2 0 01.8 2.3l-6.2 2.3 1.4 10.8 37.8-9 .7-4c-3.2 1-6 1-6.3 0-.4-1 2-2.8 5.5-4l1.5-.6h.2c2.7-.7 4.8-.6 5.1.2.4 1-1.3 2.4-3.8 3.5l-.9 5.1 13 11c1.9-2 4.2-3.6 7-4.5a17 17 0 11-10.2 22l-16.7 5.9v-.1L244.4 118l2.2 17a17 17 0 016 33 17 17 0 11-8-33l-3.9-29.4-3.3 1.2zm10.4 45.3c.5-.1 1-.6.8-1.2l-1.8-14.3a15.4 15.4 0 015.3 29.8 15.4 15.4 0 11-7.4-29.7l2 14.5c0 .5.5 1 1 .9zm33-43l-34 8.1 28.9 20.5 5-28.6zm-1.1 29l13.4-4.8a17 17 0 012.6-13.7l-11-9.4-5 28zm15-5.3c-1-4.3-.1-8.7 2.2-12.2l9.4 8-11.7 4.2zm15.6-3.5l-12-10.3a15.4 15.4 0 11-3 15.7l15-5.4zM287.5 532c-.4.1-.8 0-1-.3-.3-.4-.3-.9 0-1.1l6.2-4.2c.3-.3.8-.2 1 .2.3.4.2.9-.1 1l-3.3 2.4 2.8 6.5 20.7-11-.3-2.6c-1.7 1-3.3 1.5-3.7 1-.4-.7.7-2.2 2.5-3.4l.8-.5h.1c1.5-.9 2.8-1.2 3.1-.7.4.5-.4 1.7-1.6 2.7l.4 3.3 9.6 5a9.7 9.7 0 013.3-3.9c4.6-3.2 11.2-1.8 14.7 3.2 3.4 5 2.5 11.7-2.2 14.9-4.6 3.2-11.1 1.8-14.6-3.1l-8.8 6-23.5-9.5 4.4 10c4.1-1 8.8.7 11.6 4.6 3.5 5 2.5 11.7-2.1 15-4.7 3.2-11.3 1.7-14.7-3.3-3.5-5-2.5-11.6 2.1-14.9l1.9-1-7.6-17.6-1.7 1.2zm14.2 26.3c.3 0 .5-.5.3-.8l-3.6-8.6c3.7-1 8 .7 10.4 4.2 3.1 4.5 2.2 10.5-2 13.5-4.2 2.9-10.1 1.6-13.2-3-3.2-4.5-2.3-10.5 2-13.4.4-.4 1-.7 1.6-.9l3.7 8.7c.1.3.5.5.8.3zm11.9-31.2l-18.7 9.9 20.8 8.5-2.1-18.4zm4.5 18l7.1-4.8c-1.6-2.9-1.8-6.1-1-8.9l-8.1-4.2 2 18zm8-5.4a10 10 0 01-.9-7.8l7 3.5-6.2 4.3zm8.6-4.4l-9-4.6a8.7 8.7 0 012.9-3.4c4.2-3 10.1-1.6 13.3 2.9 3.1 4.5 2.2 10.5-2 13.4-4.1 3-10 1.7-13.2-2.8l8-5.5zM89.3 169.3a.6.6 0 01.1-1.2l6 .6a.6.6 0 01-.1 1.2l-3.3-.3-1.6 5 18.5 4 1.2-1.6c-1.6-.2-2.8-.8-2.8-1.3s1.5-.9 3.3-.7l.8.1c1.4.3 2.3.8 2.3 1.2 0 .5-1.1.8-2.5.8l-1.4 2 3.4 7.6a8.3 8.3 0 11-5 7l-8.6-.9-9.6-17-2.5 7.8a8.3 8.3 0 01-4.3 15.9 8.3 8.3 0 113.3-16.2l4.5-13.8-1.7-.2zm-4.9 22.1c.3.1.6 0 .6-.3l2.2-6.7a7.5 7.5 0 01-3.9 14.3 7.5 7.5 0 113-14.7l-2.2 6.8c0 .3 0 .6.3.6zm23.5-12L91.3 176l8.4 15 8.2-11.5zm-6.5 12.6l6.9.7c.5-2.4 2-4.4 4-5.5l-2.9-6.5-8 11.3zm7.7.8a7.5 7.5 0 013.6-5l2.4 5.6-6-.6zm7.6 1.7l-3.1-7c1-.5 2.3-.7 3.5-.6a7.5 7.5 0 11-8.2 6.8l7.8.8zM190.7 458.3L154 388.6a3.7 3.7 0 00-5-1.5l-3.2 1.8a3.7 3.7 0 00-1.2 5.2l-1.3.8a5.1 5.1 0 011.8-7.2l3-1.8a5.1 5.1 0 017.2 2l36.7 69.7 12 20.8c1.5-.3 2.7 0 3.2.8.8 1.4-1 3.8-3.8 5.5-2.9 1.6-5.8 1.9-6.6.5-.5-.8-.1-2 .8-3l-12-20.9-42.3-66.4 1.3-.8 42.2 66.5 12.6 21.7-.6.7-.7 1.2v.3s.3.2 1.1.1c1 0 2.2-.4 3.5-1.2a8.7 8.7 0 002.8-2.4c.4-.7.4-1 .4-1l-.2-.2h-1.4l-1 .2-12.6-21.7zM396.4 373.8l48.5 45.6c1.3 1 3.1 1 4.2-.3l2-2.3c1-1.2.9-3-.4-4.1l-52.1-41.4-16.2-14 .4-1a2.7 2.7 0 00.2-1 2 2 0 00-.7.2c-.7.3-1.6 1-2.4 1.9-.8 1-1.3 1.9-1.5 2.6a2 2 0 000 .7l1-.3.8-.5 16.2 14zm-1 1.1l48.6 45.5a4.3 4.3 0 006.2-.3l2-2.3a4.3 4.3 0 00-.6-6.2l-52-41.4-15.5-13.3c.5-1.2.5-2.2-.1-2.7-1-.9-3.3.1-5.2 2.2-1.8 2.2-2.5 4.6-1.5 5.4.6.6 1.6.4 2.7-.2l15.4 13.3zM408.7 178.4c8.8 1.2 16.5-2.5 17.2-8 .7-5.6-5.8-11-14.6-12.2-8.8-1.1-16.5 2.5-17.2 8-.8 5.7 5.8 11.1 14.6 12.2zm.2-1.7c7.3.9 13.6-2.1 14.2-6.7.6-4.6-4.8-9-12-10-7.3-1-13.7 2-14.3 6.6-.5 4.6 4.9 9.1 12.1 10z" fill="currentColor"/><path fill-rule="evenodd" clip-rule="evenodd" d="M409 176.1c6.8.9 12.7-1.9 13.3-6.2.5-4.3-4.5-8.5-11.3-9.4-6.8-.9-12.8 2-13.3 6.2-.6 4.4 4.5 8.6 11.3 9.4zm.3-2.3c4.7.6 8.9-1.4 9.3-4.4.3-3-3.2-6-8-6.5-4.7-.6-8.8 1.3-9.2 4.3-.4 3 3.1 6 7.9 6.6z" fill="currentColor"/><path d="M414.3 168.9c-.2 1.5-2.3 2.5-4.7 2.2-2.4-.3-4.2-1.8-4-3.3.2-1.6 2.3-2.5 4.7-2.2 2.4.3 4.2 1.7 4 3.3z" fill="currentColor"/><path fill-rule="evenodd" clip-rule="evenodd" d="M56.1 385.4c12.2-6.6 18.8-18.2 14.6-26-4.1-7.7-17.4-8.7-29.6-2.2-12.3 6.6-18.8 18.2-14.7 26 4.2 7.7 17.5 8.7 29.7 2.2zm-1.3-2.5c10-5.4 15.5-15 12-21.4-3.4-6.4-14.3-7.2-24.4-1.8-10.1 5.4-15.5 15-12 21.4 3.3 6.4 14.3 7.2 24.4 1.8z" fill="currentColor"/><path fill-rule="evenodd" clip-rule="evenodd" d="M54.4 382.2c9.5-5 14.5-14 11.3-20-3.2-6-13.5-6.8-23-1.8-9.4 5-14.4 14-11.2 20 3.2 6 13.4 6.8 22.9 1.8zm-1.8-3.3c6.6-3.5 10.2-9.8 8-14-2.3-4.2-9.5-4.7-16-1.2-6.7 3.5-10.2 9.8-8 14 2.3 4.2 9.4 4.7 16 1.2z" fill="currentColor"/><path d="M54.6 368c1.2 2.2-.6 5.4-4 7.1-3.3 1.8-7 1.6-8-.6-1.2-2 .6-5.3 4-7 3.3-1.8 6.9-1.5 8 .6z" fill="currentColor"/><path fill-rule="evenodd" clip-rule="evenodd" d="M296 27.8l-1.4 1.5-1.2-1.2c-.5-.4-1.2-.4-1.7 0l-.6.7-9.4-9.5.6-.6c.5-.5.5-1.3 0-1.7l-1.6-1.7c-.5-.5-1.3-.5-1.8 0l-2.6 2.6c-.5.5-.5 1.2 0 1.7h.1l-17.6 17.5c-.5-.5-1.3-.5-1.8 0l-2.6 2.6c-.5.4-.5 1.2 0 1.7l-1.2 1.4A10.1 10.1 0 00267.4 57l1.4-1.3c.5.6 1.3.6 1.8.1l2.6-2.6c.4-.5.4-1.2 0-1.7l-.1-.1L290.7 34v.1c.5.5 1.3.5 1.8 0l2.6-2.6c.5-.4.5-1.2 0-1.7h-.1l1.5-1.6A10.1 10.1 0 00282.2 14l-1.5 1.5.5.4 1.5-1.5A9.5 9.5 0 01296 27.8zm-28.8 26.4l1.1 1.2-1.3 1.3a9.5 9.5 0 01-13.4-13.5l1.3-1.3 1.2 1.1c.4.5 1.2.5 1.7 0l.6-.6 9.4 9.5-.6.6c-.5.5-.5 1.2 0 1.7zm1-2.8l.5-.4-4.4-4.4a1 1 0 01-.8-.8l-4.2-4.3-.4.5 9.4 9.4zm-4.5-6.3l-4-4 .7-.6c.5-.5.5-1.3 0-1.8l-1.1-1.1L276.8 20l1.2 1.2c.4.5 1.2.5 1.7 0l.6-.7 4.2 4.2-.1.1a1 1 0 101.4 1.2l4 4-.7.6c-.5.5-.5 1.3 0 1.8l1.1 1.1-17.5 17.5-1.2-1.2c-.5-.5-1.2-.5-1.7 0l-.7.6-4-4.1v-.1a1 1 0 10-1.4-1.2zm4.6 7.2l-.7.6c-.2.3-.2.7 0 .9l1.7 1.7c.2.2.6.2.8 0l2.6-2.6c.3-.3.3-.7 0-.9l-1.6-1.7a.6.6 0 00-.9 0l-.6.7-1.3 1.3zm12-36.6l1.6 1.7c.2.2.2.6 0 .9l-2.6 2.6c-.3.2-.7.2-.9 0l-1.6-1.7a.6.6 0 010-.9l2.6-2.6c.2-.2.6-.2.8 0zm9.9 14l-4.2-4.3a1 1 0 00-.8-.8l-4.4-4.4.4-.4 9.4 9.4-.4.5zm4.4.5l-1.6-1.6a.6.6 0 00-.9 0l-2.6 2.6c-.2.2-.2.6 0 .8l1.7 1.7c.2.2.6.2.8 0l2.6-2.6c.3-.2.3-.6 0-.9zM254.8 41l1.7 1.6c.2.3.6.3.9 0L260 40c.2-.2.2-.6 0-.8l-1.7-1.7a.6.6 0 00-.8 0l-2.7 2.6c-.2.2-.2.6 0 .9zM372.7 123.8l-.8 2.4-1.9-.6c-.8-.2-1.6.2-1.9 1l-.3 1-15.2-5.1.4-1c.2-.8-.2-1.6-1-2l-2.6-.8c-.8-.3-1.7.2-2 1l-1.3 4.1c-.3.8.1 1.6 1 1.9l-9.4 28.3h-.1c-.8-.3-1.6 0-1.9.9l-1.4 4.1c-.3.8.2 1.7 1 2l-.7 2a12.2 12.2 0 1023.1 7.8l.7-2.1h.1c.8.3 1.7-.1 2-1l1.3-4.1c.3-.8-.1-1.6-1-1.9l9.4-28.3h.1c.8.3 1.6 0 1.9-.8l1.4-4.2c.3-.8-.2-1.6-1-1.9l.8-2.5a12.2 12.2 0 10-23.1-7.7l-.8 2.4.7.3.8-2.5a11.4 11.4 0 0121.7 7.3zm-16.8 44l1.8.6-.7 2.2a11.4 11.4 0 01-21.7-7.3l.7-2.1 1.9.6c.8.3 1.6-.2 1.9-1l.3-1 15.2 5.1-.4 1c-.2.8.2 1.7 1 2zm-.4-3.6l.3-.7-7.1-2.4a1.1 1.1 0 01-1.3-.4l-6.8-2.3-.3.7 15.2 5.1zm-8.3-4.3l-6.4-2.2.4-1c.2-.8-.2-1.6-1-1.9l-1.8-.6 9.4-28.2 1.9.6c.8.2 1.6-.2 1.9-1l.3-1 6.7 2.3v.1a1.1 1.1 0 102 .6l6.5 2.1-.4 1c-.2.8.2 1.6 1 1.9l1.8.6-9.4 28.3-1.9-.7c-.8-.2-1.6.2-1.9 1l-.3 1-6.7-2.2v-.2a1.1 1.1 0 10-2.1-.5zm8.9 5.3h-.1l-.4 1c0 .4.1.8.5 1l2.7.8c.4.1.8 0 1-.4l1.3-4.2c.1-.4 0-.8-.5-1l-2.6-.9a.7.7 0 00-1 .5l-.3 1-.6 2.2zm-7-45.8l2.7.9c.4.1.6.5.5 1l-1.4 4.1c-.2.4-.6.6-1 .5l-2.7-1a.7.7 0 01-.4-.8l1.4-4.2c.1-.4.5-.6 1-.5zm18.2 9.6l-6.8-2.3a1.1 1.1 0 00-1.3-.4l-7-2.4.2-.7 15.2 5-.3.8zm5.1-1.8l-2.6-.9a.7.7 0 00-1 .5l-1.4 4.2c0 .4.1.8.5.9l2.7.9c.4.1.8 0 .9-.5l1.4-4.2c.1-.3 0-.8-.5-.9zm-37 33l2.7 1c.4 0 .8-.2 1-.6l1.4-4.2c0-.3-.1-.8-.5-.9l-2.7-.9a.7.7 0 00-1 .5l-1.3 4.2c-.1.4 0 .8.5 1zM195.9 327.6l3 .5-.3 2.4c-.2 1 .4 2 1.4 2.1l1.3.3-3.5 19.3-1.3-.2c-1-.2-2 .5-2.1 1.5l-.7 3.4c-.1 1 .5 2 1.5 2l5.4 1c1 .2 1.9-.4 2-1.4l.1-.2 36 6.5v.1c-.1 1 .5 2 1.5 2.1l5.4 1c1 .2 1.9-.5 2-1.5l.1-.1 2.7.4a15 15 0 0017.5-12 15 15 0 00-12.1-17.4l-2.7-.5v-.2c.2-1-.5-1.9-1.4-2l-5.4-1c-1-.2-2 .5-2.1 1.4v.2l-36.1-6.4v-.2c.2-1-.5-2-1.5-2.1l-5.3-1c-1-.1-2 .5-2.1 1.5v.2l-3.1-.6a15 15 0 00-17.5 12.1 15 15 0 0012 17.4l3.2.5.1-.9-3-.5a14 14 0 01-11.4-16.3 14.1 14.1 0 0116.4-11.4zm56.6 12.5l.4-2.3 2.7.5a14 14 0 0111.4 16.3 14.1 14.1 0 01-16.4 11.4l-2.7-.5.4-2.4c.2-1-.5-2-1.5-2.1l-1.3-.2 3.6-19.4 1.3.2c1 .2 2-.5 2-1.5zm-4.3 1.1l-1-.1-1.6 9a1.4 1.4 0 01-.3 1.7l-1.6 8.6 1 .2 3.5-19.4zm-3.9 11l-1.5 8-1.3-.2c-1-.1-2 .5-2.1 1.5l-.5 2.4-36-6.5.4-2.3c.2-1-.5-2-1.5-2.1l-1.3-.3 1.6-8.5h.2c.7.2 1.4-.3 1.6-1a1.4 1.4 0 00-1.3-1.7l1.5-8.2 1.3.3c1 .1 2-.5 2-1.5l.5-2.4 36.1 6.5-.4 2.4c-.2 1 .4 1.9 1.4 2l1.3.3-1.5 8.5h-.2c-.8-.1-1.5.4-1.6 1.1a1.4 1.4 0 001.3 1.6zm5-11.8l1.2.3c.5.1 1-.2 1.1-.7l.6-3.4c.1-.5-.2-1-.7-1l-5.4-1a1 1 0 00-1 .7l-.6 3.4c-.1.5.2 1 .7 1l1.3.3 2.7.4zM194.5 357l.7-3.4c0-.5.5-.8 1-.7l5.4 1c.5 0 .8.5.7 1l-.6 3.4c-.1.5-.6.8-1 .7l-5.4-1a.9.9 0 01-.8-1zm8.6-23.8l-1.6 8.7a1.4 1.4 0 00-.3 1.6l-1.7 9-1-.1 3.6-19.4 1 .2zm-3.1-6l-.6 3.5c-.1.5.2 1 .7 1l5.3 1c.5 0 1-.3 1-.8l.7-3.4c.1-.5-.2-1-.7-1l-5.4-1a1 1 0 00-1 .8zm46.7 39.2l.6-3.5c.1-.5-.2-1-.7-1l-5.4-1a1 1 0 00-1 .8l-.7 3.4c0 .5.3 1 .8 1l5.3 1c.5 0 1-.3 1-.7zM108.3 101.1a3 3 0 01-4-.4 3 3 0 01.4-4.2l.7-.5 3.8-5c-.2-.6.3-1.9 1.3-3.2 1.2-1.5 2.5-2.4 3-2 .3.2.2.7 0 1.4.6-.4 1-.6 1.4-.3.3.2 0 1.1-.5 2 .9-.5 1.7-.8 2-.5.3.3 0 1-.5 1.9.9-.5 1.6-.6 1.9-.3.2.3 0 1-.7 1.8 1-.4 1.7-.5 1.9-.1.2.4-.2 1-1 1.8 1-.3 2-.3 2.1 0 .2.4 0 .8-.7 1.4.8-.2 1.4 0 1.5.2.3.6-1 1.7-2.7 2.4-1.5.7-3 1-3.4.6l-5.8 2.5-.7.5zm.8-1l1.5-.7a24 24 0 00-.3-.7l-1.7.8.5.6zm-.7-1l1.6-.7a16 16 0 00-.3-.6l-1.6 1 .3.4zm-.6-.6l1.6-1-.2-.4-1.6 1.2.2.2zm-.5-.6l1.6-1.2-.3-.4-1.4 1.4.1.2zm-.4-.6l1.4-1.3-.5-.4-1.2 1.4.3.3zm-.6-.7l1.2-1.4-.6-.5-1 1.4.4.5zm5.3 2.4l-.7.3-.4-.7.7-.4.4.8zm.3-.2l2.7-1.1c0-.3.2-.5.5-.8l-1-.1-2.6 1.3.4.7zm-.6-1l2.7-1.4c0-.3.2-.6.6-1-.6.2-1 .2-1.2.1l-2.5 1.6.4.6zm-.7-1.1l2.5-1.6.4-.8h-1l-2.2 1.9.3.5zm-.6-.3l.4.5-.7.4-.3-.4.6-.5zm0-.6l2.3-1.8.3-.9c-.4.2-.7.2-1 .2l-2 2 .4.5zm-.6-.2l.4.4-.7.5-.3-.4.6-.5zm-.1-.6l2-2c0-.3.1-.7.4-1.2-.4.3-.8.4-1 .4l-2 2.3.6.5zm-.8-.3l.6.5-.6.6a15 15 0 00-.5-.5l.5-.6zm-.1-.5l2-2.3c-.2-.2-.1-.5 0-1-.3.3-.6.4-.8.4l-1.8 2.3.6.6zm-.8-.3l.6.5-.5.6-.6-.5.5-.6zm3 3.3l.4.7-.7.3-.4-.5.7-.5z" fill="currentColor"/><path fill-rule="evenodd" clip-rule="evenodd" d="M105.6 96.3l-.6.5a2.6 2.6 0 00-.5 3.6 2.6 2.6 0 003.6.4l.7-.5-3.2-4zm.3-.2l.4.5 1.2-1.4a26.6 26.6 0 00-.6-.5l-1 1.4zm.7.9l.3.3 1.4-1.3a13.1 13.1 0 00-.3-.2l-.2-.2-1.2 1.4zm.6.7l.1.2 1.6-1.2a7.2 7.2 0 00-.3-.4l-1.4 1.4zm.4.6l.2.2 1.6-1v-.2l-.2-.1V97l-1.6 1.2zm.5.5l.3.4 1.6-.8-.1-.3-.2-.3-1.6 1zm.5.7l.5.6 1.5-.7a18.2 18.2 0 00-.3-.7l-1.7.8zm6.3-1.7H116.2c.5 0 1.2-.3 2-.6s1.5-.8 2-1.2l.4-.5.1-.2-.3-.1h-.8l-1.1.2.8-.8.6-.6v-.3l-.4-.1c-.3 0-.8 0-1.3.2l-.4-.5.9-1c.2-.3.1-.4.1-.4s0-.1-.4 0c-.3 0-.7 0-1.1.2l-.4-.6c.3-.3.5-.7.6-1 .2-.2.1-.3.1-.3h-.4c-.3 0-.6.1-1 .4l-.5-.5.5-1v-.5h-.4l-1.1.7-.5-.5c.3-.5.5-.9.5-1.2v-.4s0-.1-.2 0l-.8.3-1 .7.5-1 .2-1V86h-.2l-.7.3-1.6 1.7c-.5.6-.9 1.3-1 1.8l-.3.7v.4c.2 0 .4 0 .7-.2l.9-.5-.4.9v.7h.3l.5-.3 1.1-.7-.6 1.2-.2.6v.3l.7-.1 1-.4-.6.9c-.2.3-.3.6-.2.7h.7l1-.4-.6.9-.3.6.4.1h.6l1.3-.4-1 .9-.4.4v.3c0 .1.3.2.7.1h1l-.8.6-.4.6zm-1-1.4c0-.2.2-.3.3-.5 0-.2.2-.3.4-.4h-1.2l-2.5 1.6.4.6 2.7-1.3zm-.8-1.3l.2-.4.2-.4h-.5a1 1 0 01-.4 0l-2.3 1.9.3.5 2.5-1.6zm-.8-1.1v-.4l.3-.5-.5.2a1 1 0 01-.4 0l-2.1 2 .4.5 2.3-1.8zm-1-1c0-.2 0-.4.2-.6l.2-.6-.5.3h-.5l-2 2.4a18.3 18.3 0 01.6.5l2-2zm-1-1.1v-.5l.1-.4-.4.2a1 1 0 01-.4 0l-1.8 2.4a36.1 36.1 0 01.6.6l2-2.3zm-3.2 2.6a36.8 36.8 0 01.6.5l.5-.6-.3-.3-.3-.2-.5.6zm1 .8a15.7 15.7 0 01.4.5l.6-.6h-.1l-.2-.2-.3-.3-.5.6zm.7.8a12 12 0 01.3.4l.7-.5-.2-.2-.2-.2-.6.5zm.6.8l.3.4.7-.4a20.8 20.8 0 00-.4-.5l-.6.5zm.7 1s0-.2-.2-.2l.7-.5v.1l.2.2.2.4-.7.3-.2-.3zm.6 1l-.2-.3.7-.4a23.5 23.5 0 01.4.8l-.7.3-.2-.4zm3.9-1.2c0-.2 0-.3.2-.4 0-.2.2-.3.3-.4h-.5a1 1 0 01-.4-.1l-2.7 1.3a18.2 18.2 0 01.4.7l2.7-1.1zm-9.2-1.7l-.7.5a3 3 0 00-.5 4.2 3 3 0 004.1.4l.7-.5 5.8-2.5c.5.3 1.9.1 3.4-.6 1.8-.7 3-1.8 2.7-2.4 0-.2-.4-.3-1-.3h-.5c.2 0 .3-.2.4-.3.3-.4.5-.7.3-1-.1-.3-.7-.3-1.5-.2l-.6.2.5-.5c.5-.5.7-1 .5-1.3-.2-.3-.7-.3-1.3-.1-.2 0-.4 0-.6.2l.3-.5c.4-.6.6-1 .4-1.3-.2-.3-.7-.2-1.4 0l-.5.3.3-.6c.3-.6.4-1 .2-1.3-.2-.2-.8-.1-1.4.2l-.6.4.3-.6c.3-.7.4-1.3.2-1.5-.2-.2-.6-.2-1 0l-.5.3.2-.5c.1-.4 0-.8-.1-1-.5-.3-1.8.6-3 2.1-1 1.3-1.5 2.6-1.3 3.2l-3.8 5z" fill="currentColor"/><path d="M108.3 101.1l-3.6-4.6 1-.7 3.6 4.6-1 .7z" fill="currentColor"/><path fill-rule="evenodd" clip-rule="evenodd" d="M196.4 198.4c3.3.3 5.6 3 5.3 6.3a5.8 5.8 0 01-6.4 5.1l-1.6-.1-12.3 2c-.5 1-3 2.2-6.3 2.7-3.7.6-6.9.1-7-1-.2-.8.7-1.5 2-2.2-1.4-.2-2.4-.7-2.5-1.4-.1-.9 1.4-1.8 3.6-2.4-2.2-.3-3.7-1-3.7-2 0-.7 1.3-1.4 3.3-1.8-2-.6-3.2-1.5-3.1-2.3 0-.8 1.4-1.3 3.5-1.5-2-.8-3-1.8-3-2.6.2-.8 1.9-1.2 4-1.2-2-1-3.3-2.2-3-3 .2-.6 1.3-1 2.8-.9-1.3-.9-2-1.8-1.7-2.4.4-1.2 3.6-1 7.1.2 3 1.2 5.4 2.8 5.6 4l11.8 4.3 1.6.2zm-2.4.4l-3.2-1.1c0 .5-.2 1-.3 1.4l3.4 1 .1-1.3zm-.2 2.3l-3.6-1.1-.2 1.2 3.7.8v-1zm-.2 1.7l-3.8-.7v1l3.8.3v-.6zm-.1 1.5l-3.9-.4v1h3.8v-.6zm-.2 1.5h-3.7v1.2l3.7-.4v-.8zm-.1 1.7l-3.6.4.1 1.5 3.3-.5.2-1.4zm-4.4-10.6l1.5.6-.4 1.4-1.5-.4.4-1.6zm-.6-.2l-5.5-2c-.3.3-1 .4-1.7.4.6.5 1 1 1.2 1.5l5.6 1.7.4-1.6zm-.6 2.5l-5.7-1.8c-.4.3-1.1.5-2.1.5 1 .5 1.5 1 1.7 1.6l5.8 1.1.3-1.4zm-.5 2.3l-5.7-1.2c-.3.4-1 .6-1.8.7.8.4 1.3.8 1.5 1.2l5.8.6.2-1.3zm.4 1.3l.2-1.2 1.6.4-.2 1-1.6-.2zm-.7.8l-5.8-.5c-.3.3-.8.6-1.6.8.7.3 1.3.7 1.5 1h5.9v-1.3zm.6 1.3v-1.2l1.6.2v1h-1.6zm-.6.9h-5.9c-.2.5-1 1-2 1.2 1 .2 1.7.6 2 1l6-.7-.1-1.5zm.6 1.5v-1.5h1.6v1.3l-1.6.2zm-.5 1l-5.9.5c-.2.4-.7.8-1.4 1.2.8.2 1.3.4 1.6.8l5.8-1-.1-1.6zm.7 1.4l-.1-1.6 1.5-.1.2 1.5-1.6.2zm.2-9l.3-1.4 1.6.5-.3 1.3-1.6-.3z" fill="currentColor"/><path fill-rule="evenodd" clip-rule="evenodd" d="M193.7 209l1.7.1c2.9.3 5.4-1.7 5.7-4.5a5.2 5.2 0 00-4.8-5.6l-1.6-.1-1 10zm-.7-.1l.2-1.4-3.6.4a47 47 0 00.1 1.5l3.3-.5zm.3-2.3v-.8h-3.7a26.3 26.3 0 000 .6v.6l3.7-.4zm.1-1.7v-.6l-3.8-.4v1h3.8zm.2-1.5v-.6l-3.8-.7a13.8 13.8 0 000 .7v.2l3.8.4zm.1-1.4v-1l-3.5-1v.5l-.1.1-.1.6 3.7.8zm.2-1.8l.1-1.4-3.2-1.1a43.5 43.5 0 00-.3 1.4l3.4 1zm-11.5-6v-.2l-.4-.6-1.1-1c-1-.6-2.2-1.3-3.7-1.8-1.7-.7-3.3-1-4.5-1h-1.4a1 1 0 00-.3.2s-.1.2.1.6l1.3 1.1 1.8 1.4-2.2-.1-1.7.1-.5.3v.2l.5.6a9 9 0 002.3 1.4l-.4 1.3c-1 0-1.9 0-2.5.3-.7.1-.8.4-.8.4s0 .2.5.6c.4.4 1.1.8 2 1.1l-.2 1.3c-1 .1-1.7.3-2.2.6-.6.2-.6.4-.6.4s0 .2.5.6c.4.3 1.2.6 2.1.9v1.3c-1 .2-1.8.5-2.3.8-.5.3-.5.5-.5.5s0 .2.6.5 1.4.6 2.5.8v1.3a9 9 0 00-2.4 1 2 2 0 00-.5.5l-.1.1s0 .2.4.4c.3.2.9.4 1.6.5l2.2.3-2 1c-.7.3-1.2.6-1.5.9l-.3.4.3.3 1.3.4c1.2.2 2.9.1 4.7-.1 1.5-.3 3-.7 4-1.2l1.2-.7.5-.5v-.1c-.1-.3-.5-.5-1.3-.6l-1.9-.4 1.8-1c.7-.3 1-.6 1-.8h.1v-.1l-.5-.4-1.1-.3-2.6-.5 2.5-.8 1.2-.5.4-.4.1-.1c-.2-.3-.5-.5-1.3-.8l-2-.8 2-.5c.9-.2 1.2-.5 1.4-.6v-.1c-.1-.3-.4-.6-1.2-1l-2-.9 2.2-.3 1.4-.5v-.2l-.4-.5-1-.7-2.4-1.2h2.7l1.1-.2.6-.2v-.2c0-.2-.3-.6-1-1l-1.5-1.2h2c.7 0 1.2-.2 1.3-.3zm-.5 3.2c-.2.2-.6.3-1 .4l-1.1.1 1 .6.7 1 5.8 1.1v-.1a35.2 35.2 0 01.3-1.3l-5.7-1.8zm-.5 3a2 2 0 01-.8.4l-1 .2 1 .6.5.6 5.8.6.2-1.3-5.7-1.2zm-.4 2.7a2 2 0 01-.7.5c-.3.1-.6.3-1 .3l1 .5c.3.2.5.3.6.6h5.9v-.1-1.2l-5.8-.6zm0 2.7c-.2.3-.6.6-1 .8a7 7 0 01-1 .4l1 .4c.4.1.7.3.9.6l6-.7-.1-1.3v-.2h-5.9zm0 3a2 2 0 01-.6.7l-.8.5.9.3c.3.1.6.3.7.5l5.8-1a59.7 59.7 0 01-.1-1.6l-5.9.6zm8.2.7a50.8 50.8 0 01-.2-1.5l-1.5.1a54.4 54.4 0 000 1.6l1.7-.2zm-.2-2.4a28.5 28.5 0 010-1.3h-1.6a9 9 0 000 .7v.8l1.6-.2zm0-2.2v-1l-1.6-.2v1.2h1.6zm.1-2l.2-1-1.6-.3-.1.5v.7l1.5.2zm.4-2.4v.6l-1.7-.3v-.2l.2-.5v-.1l.1-.7 1.6.5-.2.7zm.6-2.2l-.2.6-1.5-.4.2-1 .2-.6 1.5.6-.2.8zm-7.4-3.6a2 2 0 01-.8.3 5 5 0 01-1 .1c.4.2.6.5.8.7l.5.8 5.6 1.7a58 58 0 01.4-1.5l-5.5-2zm11 15l1.6.1c3.3.3 6.1-2 6.4-5.1.3-3.2-2-6-5.3-6.3l-1.6-.2-11.8-4.3c-.2-1.2-2.5-2.8-5.6-4-3.5-1.3-6.7-1.4-7.1-.2-.2.4.1 1 .8 1.7l.9.7h-1c-1 .1-1.7.4-1.8.9-.2.7.5 1.5 1.8 2.4l1.3.6h-1.4c-1.5.2-2.5.6-2.6 1.2-.1.7.5 1.4 1.7 2l1.2.6-1.3.1c-1.3.3-2.2.8-2.2 1.4 0 .7.7 1.3 2 1.8l1.1.5-1.2.3c-1.3.4-2.1 1-2.1 1.6 0 .7.9 1.2 2.3 1.6.4.2.9.3 1.4.3l-1.3.5c-1.5.5-2.4 1.2-2.3 2 0 .4.6.8 1.5 1.1l1 .2-.9.5c-.8.6-1.2 1.1-1.2 1.6.2 1.2 3.4 1.7 7 1.1 3.3-.5 6-1.7 6.4-2.8l12.3-2z" fill="currentColor"/><path d="M196.4 198.4l-1 11.4-2.4-.2 1-11.5 2.4.3z" fill="currentColor"/><path fill-rule="evenodd" clip-rule="evenodd" d="M196.3 304.7a3 3 0 014-1 3 3 0 01.8 4.2l-.4.6-2 6c.4.5.4 2-.2 3.5-.5 1.8-1.5 3.1-2 3-.4-.2-.6-.7-.5-1.5-.5.6-1 1-1.3.8-.4-.2-.4-1-.2-2.2-.7 1-1.3 1.4-1.7 1.2-.4-.1-.4-.9-.1-1.9-.7.8-1.4 1.1-1.7 1-.4-.3-.3-1 0-2-.7.6-1.4 1-1.7.7-.4-.3-.2-1.1.3-2-.9.6-1.7 1-2 .6-.3-.2-.2-.8.2-1.5-.7.4-1.3.5-1.5.2-.4-.4.4-1.8 1.8-3.1 1.2-1.1 2.5-1.8 3-1.6l4.7-4.3.5-.7zm-.4 1.2l-1.2 1.2.5.5 1.3-1.3-.6-.4zm1 .6l-1.3 1.4.4.4 1.2-1.5-.3-.3zm.7.5l-1.2 1.5.4.3 1-1.6-.2-.2zm.6.4l-1 1.7.4.2.9-1.7-.3-.2zm.7.4l-.9 1.7.6.3.6-1.7-.3-.3zm.7.5l-.6 1.7.7.3.5-1.6-.6-.4zm-5.7-.5l.5-.5.6.5-.6.6a30 30 0 01-.5-.6zm-.3.2l-2.1 2c0 .2 0 .5-.3.9.4-.2.7-.2 1-.2l2-2.1-.6-.6zm1 .9l-2.1 2.1c0 .3 0 .6-.3 1 .5-.2.9-.4 1.1-.3l1.9-2.3a16 16 0 01-.6-.5zm1 .7l-2 2.3v1c.3-.3.6-.4.8-.4l1.6-2.5a12 12 0 01-.5-.4zm.6.2a12 12 0 01-.5-.4l.5-.6c.2 0 .3.2.4.3l-.4.7zm.2.4l-1.6 2.5v1c.3-.3.6-.5.8-.5l1.4-2.6-.6-.4zm.7.1l-.5-.3.4-.7.5.3-.4.7zm.3.5l-1.4 2.6c.2.2.2.7.1 1.2.3-.4.6-.7.9-.7l1-2.8-.6-.3zm.8 0a15 15 0 01-.7-.3l.4-.7.6.3-.3.7zm.3.5l-1.1 2.8.2.9.7-.6 1-2.8-.8-.3zm.8 0l-.7-.3.3-.7.7.3-.3.7zm-4-2.2a16 16 0 01-.5-.4l.5-.6.6.4-.5.6z" fill="currentColor"/><path fill-rule="evenodd" clip-rule="evenodd" d="M200.4 308.4l.5-.7c.7-1.3.4-2.9-.8-3.6a2.6 2.6 0 00-3.6.8l-.4.7 4.3 2.8zm-.2.3l-.6-.4-.6 1.7a21.3 21.3 0 00.7.3l.5-1.6zm-1-.6l-.3-.3-.9 1.7.3.1.3.2.6-1.7zm-.7-.5l-.3-.2-1 1.7h.1l.2.1.1.1.9-1.7zm-.6-.4l-.3-.2-1.2 1.5.1.1.2.1.1.1 1-1.6zm-.7-.4l-.3-.3-1.3 1.4a11.2 11.2 0 00.2.2l.2.2 1.2-1.5zm-.7-.5l-.6-.4-1.2 1.2a45.4 45.4 0 00.5.5l1.3-1.3zM191 310h-.4l-.7.3-1.7 1.3c-.7.6-1.2 1.2-1.5 1.8l-.2.6v.2h.2l.8-.3 1-.5-.5 1-.3.8v.3h.5l1.1-.8.5.5-.4 1.2c-.1.3 0 .4 0 .4h.4l1-.7.5.4-.3 1.1v.4h.4l1-.8.5.3-.2 1.2.1.3.4-.1 1-1 .5.3V320h.3l.6-.6.7-1v2l.1.3h.2l.5-.6c.4-.5.7-1.2 1-2.1.3-.8.4-1.5.4-2v-.8l-.1-.3h-.1c-.1 0-.3 0-.5.4l-.7.8v-1-.7h-.4l-.4.5-.9 1 .3-1.3v-.6-.3h-.1c-.1 0-.3 0-.6.3l-.8.8.2-1.1v-.7c-.2 0-.4 0-.7.2l-.9.7.4-1V312h-.3l-.6.4-1 .7.5-1.2.2-.5v-.3l-.7.1-1 .4.5-.9.2-.6zm1.4 1v.6l-.3.5.5-.3c.3-.1.5-.2.6-.1l1.9-2.3h-.1l-.5-.5-2.1 2.1zm1.2 1v.4l-.1.5.4-.3.4-.1 1.6-2.5-.5-.4-1.8 2.3zm1.1.7v1l.4-.3.4-.2 1.4-2.6a824585389.3 824585389.3 0 00-.6-.4l-1.6 2.5zm1.2.7l.2.6v.6c0-.2.2-.3.3-.4.2-.2.3-.3.5-.3l1-2.8-.6-.3-1.4 2.6zm1.4.7l.2.4v.5l.3-.4.4-.2 1-2.8-.5-.2-.3-.1-1.1 2.8zm2.2-3.5l-.4-.2-.3-.1-.3.7.4.2.3.1.3-.7zm-1.1-.5l-.4-.2-.2-.1-.4.7c.2 0 .2.1.3.2l.4.1.3-.7zm-1-.5l-.5-.3-.4.7.2.1.3.2.4-.7zm-.9-.5l-.4-.3-.5.6.2.2c.2 0 .2.1.3.2l.4-.7zm-1-.8l.3.2-.5.6a4 4 0 00-.3-.2l-.3-.2.5-.6.3.2zm-.8-.7l.2.2-.6.6-.3-.4-.2-.2.5-.5c.2 0 .3.2.4.3zm-3.3 2.4v.5l-.3.4.5-.2h.5l2-2.1a17.6 17.6 0 01-.5-.6l-2.2 2zm9.2-1.5l.4-.6a3 3 0 00-.8-4.1 3 3 0 00-4 1l-.5.6-4.6 4.3c-.6-.2-1.9.5-3.1 1.6-1.4 1.3-2.2 2.7-1.8 3.1.2.2.5.2 1 0 .2 0 .3 0 .5-.2a4 4 0 00-.2.5c-.2.5-.2.8 0 1 .2.2.8.1 1.5-.3l.5-.4-.3.7c-.3.6-.3 1.2 0 1.4.2.2.7 0 1.3-.3l.5-.4-.2.6c-.2.6-.2 1.1 0 1.3.3.2.8 0 1.3-.5.2 0 .3-.2.5-.4l-.2.6c0 .7 0 1.2.3 1.3.3.2.7 0 1.3-.6l.4-.6-.1.7c-.1.8 0 1.4.3 1.5.3 0 .6 0 1-.4l.3-.4v.5c0 .5.2.8.4 1 .6.1 1.6-1.2 2.1-3 .6-1.6.6-3 .2-3.5l2-6z" fill="currentColor"/><path d="M196.3 304.7l4.8 3.2-.6 1-4.9-3.2.7-1z" fill="currentColor"/><path fill-rule="evenodd" clip-rule="evenodd" d="M122.7 454l-.3.1a22.5 22.5 0 01-25.7-8.7 22.4 22.4 0 01-3.8-15v-.3c.8-5.9 3.8-11 8.1-14.7l.2-.1a22.4 22.4 0 0114.6-5h.7c4.8.3 9.3 2.1 12.8 5l.2.1c4.1 3.4 7 8.2 8 13.8v.2a22.7 22.7 0 01-2.4 14v.1a22.4 22.4 0 01-12.4 10.6zm.2-.5a22 22 0 01-15.2 0l-3.5-5.1 1.4-1.7 5-6h9.3l6.2 8.1-3.2 4.7zm10.3-7.9a22 22 0 01-10 7.8l3-4.6 7-3.2zm1.8-3a21.9 21.9 0 002-12.5l-2.6 4.5.6 8zm2-12.8a22 22 0 00-8.3-14.4l-5.4.1-.3.8-3 8 2 3.5 2.7 4.6 9.6 2 2.8-4.6zm-8.5-14.5h-5.2l-6.1-4.4c4.2.4 8.1 2 11.3 4.4zm-14.6-4.4c-4.5.3-8.5 1.9-11.9 4.4h5.7l6.2-4.4zm-12.1 4.5a22 22 0 00-8.4 15.4l2.2 3.6 2-.4 8.3-1.6 2.3-4 2.3-4-2.8-8.9h-5.9zM93.4 431a22.3 22.3 0 001.4 9.7l.7-6.2-2.1-3.5zm4 14.7c2.6 3.5 6 6.1 10 7.7l-3.4-5-6.5-2.7zM122 428l2.6 4.6-2.6 4.6-2 3.5h-9.3l-4.6-8 2.3-4.2 2.3-4h9.3l2 3.5zM396.2 465.6h-.1a15.2 15.2 0 01-9.7 0h-.2a15.3 15.3 0 01-10.1-16v-.2a15.2 15.2 0 015.5-10h.1c2.5-2 5.7-3.3 9-3.4h.2a13.1 13.1 0 01.7 0h.4c3.3.2 6.3 1.4 8.7 3.3l.2.1c2.8 2.3 4.7 5.6 5.3 9.3v.2a15.4 15.4 0 01-2.3 10.7 15.3 15.3 0 01-7.7 6zm.2-.4a14.9 14.9 0 01-10.3 0l-2.4-3.4 1-1.2 3.4-4h6.2l4.2 5.5-2.1 3.1zm7-5.3a15 15 0 01-6.8 5.2l2-3 4.7-2.2zm1.2-2a14.8 14.8 0 001.4-8.5l-1.8 3 .4 5.4zm1.4-8.7c-.6-4-2.6-7.4-5.6-9.7h-3.7l-.2.6-2 5.4 1.3 2.3 1.8 3.2 6.5 1.3 1.9-3.1zm-5.8-9.9h-3.5l-4.2-3c2.9.3 5.5 1.4 7.7 3zm-10-3c-3 .2-5.7 1.3-8 3h3.9l4.2-3zm-8.1 3.2a14.9 14.9 0 00-5.7 10.3l1.5 2.5 1.3-.3 5.6-1 1.6-2.8 1.6-2.7-1.9-6h-4zm-5.7 10.5a15 15 0 001 6.6l.4-4.2-1.4-2.4zm2.8 10a15 15 0 006.7 5.1l-2.3-3.3-4.4-1.8zm16.5-12.1l1.8 3.1-1.8 3.1-1.3 2.4H388L385 451l1.5-2.8 1.6-2.7h6.3l1.3 2.4zM466 369.3h-.3a21.7 21.7 0 01-13.9 0h-.2a21.7 21.7 0 01-14.5-23v-.2c.7-5.7 3.6-10.7 7.9-14.2l.2-.1c3.5-2.9 8-4.6 13-4.8a26.7 26.7 0 011.4 0h.3a21.6 21.6 0 0120.3 18.2 20 20 0 01.3 3.6 21.8 21.8 0 01-14.6 20.5zm.1-.6a21.2 21.2 0 01-14.7 0l-3.4-5 1.4-1.5 4.9-5.8h9l5.9 7.8-3 4.5zm10-7.6c-2.4 3.4-5.8 6-9.7 7.5l3-4.4 6.7-3zm1.7-3a21.2 21.2 0 002-12l-2.5 4.4.5 7.7zm2-12.3a21.3 21.3 0 00-8-13.9l-5.3.1-.3.8-2.8 7.7 2 3.4 2.5 4.5 9.3 1.9 2.6-4.5zm-8.2-14h-5l-6-4.3c4.1.4 7.9 2 11 4.3zm-14.2-4.3c-4.3.3-8.3 1.8-11.5 4.3h5.5l6-4.3zm-11.7 4.4a21.3 21.3 0 00-8.1 14.9l2.1 3.5 2-.4 8-1.5 2.2-4 2.2-3.9-2.7-8.5h-5.7zm-8.2 15.1a21.7 21.7 0 001.4 9.4l.7-6-2-3.4zm4 14.3c2.4 3.3 5.8 5.8 9.6 7.3l-3.3-4.8-6.3-2.5zm23.7-17.3l2.5 4.4-2.5 4.5-2 3.4h-9l-4.4-7.8 2.2-4 2.3-3.9h9l1.9 3.4z" fill="currentColor"/><path d="M146.7 479.3a.3.3 0 11.2.4l-1.6 1a.3.3 0 01-.3-.5l1.7-1z" fill="currentColor"/><path fill-rule="evenodd" clip-rule="evenodd" d="M422.7 203c-.1-.4 0-.8.4-1l14.6-6.2c.4-.1.8 0 1 .4l.6 1.5c.1.4 0 .7-.4.9l-14.6 6.2c-.4.2-.8 0-1-.3v-.3a41.6 41.6 0 00-14.6 10.2l3.7.1h2.6c5.7 0 10.5 1 14.2 3.5 3.7 2.4 6.3 6.1 7.7 11.4 1.2 5-.9 9.2-4.8 11.7-4 2.5-9.6 3.3-15.6 1.6a25.5 25.5 0 01-12.2-6.4c-2.4-2.7-3.2-6-2.7-10 .3-3.3 2-7.1 4.9-10.8h-1.7c-1.8.2-3.5.6-5 1.2a7 7 0 00-2 1.3l.2.2c.3.3.3.7.1 1l-9.9 12.4c-.2.3-.6.4-1 .1l-1.2-1a.7.7 0 01-.2-1l10-12.4c.1-.3.6-.3.9-.1l.2.2c.7-.7 1.6-1.2 2.6-1.6 1.5-.7 3.3-1 5.2-1.2l2.6-.2c3.6-4.2 8.8-8.2 15.6-11.1l-.2-.4zm-15 12.4a21.9 21.9 0 00-5.1 11c-.4 3.8.3 6.8 2.4 9.2 2.2 2.5 6 4.4 11.8 6.1 5.7 1.7 11.1.9 14.8-1.4 3.6-2.3 5.4-6.1 4.3-10.6a17.4 17.4 0 00-7.3-10.9c-3.4-2.2-8-3.2-13.6-3.2a81.8 81.8 0 01-7.2-.2zM219.6 272.5c.2-.3 0-.7-.3-.9l-14.7-6.2a.7.7 0 00-.9.4l-.6 1.5c-.2.4 0 .7.3.9l14.7 6.2c.3.2.7 0 .9-.3v-.3a41.6 41.6 0 0114.7 10.2l-3.8.1h-2.5c-5.8 0-10.5 1-14.2 3.5a18.4 18.4 0 00-7.7 11.4c-1.3 5 .8 9.2 4.7 11.7 4 2.5 9.7 3.3 15.6 1.6 6-1.7 9.9-3.8 12.3-6.4 2.4-2.7 3.1-6 2.7-10-.4-3.3-2-7.1-4.9-10.8h1.6c1.9.2 3.6.6 5 1.2a7 7 0 012.1 1.3l-.2.2c-.3.3-.4.7-.2 1l9.9 12.4c.2.3.7.4 1 .1l1.3-1c.3-.2.3-.7.1-1l-9.9-12.4a.7.7 0 00-1-.1l-.2.2a7.9 7.9 0 00-2.5-1.6c-1.6-.7-3.4-1-5.3-1.2l-2.5-.2a42.2 42.2 0 00-15.6-11.1l.1-.4zm15 12.5c3 3.8 4.8 7.7 5.2 11 .4 3.8-.3 6.8-2.5 9.2-2.2 2.5-6 4.4-11.8 6.1-5.7 1.7-11 .9-14.7-1.4a9.3 9.3 0 01-4.3-10.6c1.3-5.1 3.8-8.6 7.2-10.9 3.5-2.2 8-3.2 13.7-3.2a81.8 81.8 0 007.2-.2zM106 344.4c-.3-.3-.2-.8.2-1.1l15.5-12c.3-.4.9-.3 1.2 0l1.3 1.5c.2.4.2.9-.2 1.1l-15.5 12c-.4.4-.9.3-1.2 0l-.2-.3a51.9 51.9 0 00-14.2 16.6l4.6-1.2 3-.8c7-2 13-2.5 18.1-1.1 5.3 1.4 9.5 4.7 13 10.2 3 5.1 2 10.6-2 14.7-3.8 4.2-10.4 7-18 7.2-7.7.1-13-.8-16.8-3-3.8-2.2-5.7-5.6-6.5-10.2-.6-3.9.1-8.7 2.4-13.9l-2 .7c-2 .8-4 1.8-5.5 3-1 .6-1.6 1.4-2.1 2.2l.3.1c.5.2.7.6.5 1L74 388.5c-.2.4-.6.6-1 .5l-2-.7a.8.8 0 01-.5-1l7.8-17.4c.2-.4.7-.7 1.1-.5l.4.1c.6-1 1.5-1.9 2.5-2.7 1.6-1.2 3.7-2.3 5.9-3.1l3-1c3-6 7.8-12.3 15-18l-.3-.3zm-13.8 19.2a24.9 24.9 0 00-2.6 14.1c.7 4.4 2.5 7.5 5.9 9.5 3.4 2 8.5 3 16 2.8a24 24 0 0017.2-6.7c3.6-3.8 4.6-8.7 1.7-13.4a20.4 20.4 0 00-12.1-9.7 32.5 32.5 0 00-17.4 1.1l-3.2.8-5.5 1.5zM256.6 403.2c-3.4 0-6.4-1.4-8.5-3.8-.3-.2-.5-.4-.6-.7a11.6 11.6 0 1118.2 0v.2l-.6.6a11.6 11.6 0 01-8.5 3.7zm0-1c3 0 5.7-1.2 7.7-3.2l-1.6-1.4-.5.5a.5.5 0 11-.7-.7l.6-.5c-.5-.6-.9-1.3-1.2-2l-.7.2a.5.5 0 01-.2-.9l.6-.1c-.2-.8-.4-1.7-.4-2.5h-.6a.5.5 0 010-1h.7c0-.6.2-1.2.4-1.8l-.7-.3a.5.5 0 01.2-.8l.9.2c.3-.7.7-1.3 1.2-1.9l-1-.5a.5.5 0 01.5-.8l1.1.6 1.4-1.1a10.7 10.7 0 00-15.5 0l1.3 1.1 1.1-.6a.5.5 0 01.5.8l-1 .5c.5.6.9 1.2 1.2 2l.8-.3a.5.5 0 11.3.8l-.8.3c.3.6.4 1.2.5 1.9h.7a.5.5 0 010 .9h-.7c0 .8 0 1.7-.3 2.5l.6.1a.5.5 0 01-.2 1l-.7-.3c-.3.7-.7 1.4-1.2 2l.5.5a.5.5 0 01-.6.7l-.5-.5c-.5.5-1 1-1.5 1.3 2 2.1 4.7 3.4 7.8 3.4zm-6.4-6l-.5-.4a.5.5 0 10-.6.7l.5.5-1.4 1.2a10.6 10.6 0 010-13.2l1 .8a.5.5 0 00.4.9l.3-.2c.4.5.8 1 1 1.7l-.5.1a.5.5 0 10.3.9l.7-.2.4 1.7h-.9a.5.5 0 100 .9h1c0 .8-.2 1.5-.4 2.2l-.8-.2a.5.5 0 00-.3.9l.8.2-1 1.6zm13.2.8l.5-.5a.5.5 0 00-.6-.7l-.5.5-1-1.6.7-.2a.5.5 0 10-.2-1l-.8.3c-.2-.7-.4-1.4-.4-2.2h1a.5.5 0 000-1h-.9c0-.5.2-1 .4-1.6l.7.2a.5.5 0 00.3-.9l-.6-.1 1.1-1.7.3.2a.5.5 0 10.4-.8l1.1-1a10.6 10.6 0 010 13.4l-1.5-1.3zM193.7 65.6a21 21 0 01-10.4-13.3v-.1a21 21 0 1141.1-8.8 21 21 0 01-12.5 23v.1a21 21 0 01-18.2-.9zm.8-1.4c4.8 2.6 10.3 3 15.1 1.4-.6-1.2-1-2.4-1.3-3.7l-1.3.4a.8.8 0 01-.4-1.6l1.3-.4c-.2-1.4-.3-2.8-.1-4.2l-1.3-.3a.8.8 0 11.3-1.6l1.2.3c.3-1.5.8-2.9 1.5-4.2l-1-.6a.8.8 0 11.7-1.5l1.2.6c.7-1 1.5-1.9 2.4-2.7l-1-1a.8.8 0 011.1-1.1l1.2 1.1a17 17 0 013.5-2l-1-1.7a.8.8 0 111.3-.9l1.3 2c1-.2 2-.5 3.2-.6a19.3 19.3 0 00-24.8-13.2c.4 1 .8 1.9 1 2.8h2.5a.8.8 0 110 1.6h-2l.3 4 1.5.4a.8.8 0 11-.3 1.6l-1.4-.3c-.2 1.2-.5 2.4-1 3.5l1.2.6a.8.8 0 01-.8 1.5l-1-.6c-.8 1.3-1.7 2.5-2.7 3.6l.8.8a.8.8 0 11-1.1 1.2l-1-1c-1 1-2.3 1.7-3.6 2.3l.5 1.3a.8.8 0 01-1.6.5l-.4-1.2c-1.1.4-2.3.6-3.5.8 1.3 5 4.6 9.4 9.5 12zm-5-15.1l-.4-1.3a.8.8 0 00-1.6.6l.4 1.3c-1 .4-2.1.6-3.3.8a19.3 19.3 0 0111.5-21.2l.9 2.3h-.3a.8.8 0 100 1.6h.7c.2 1.2.4 2.4.3 3.6l-1-.2a.8.8 0 00-.4 1.6l1.3.3c-.2 1-.4 2-.8 3l-1.4-.7a.8.8 0 10-.7 1.4l1.4.8c-.6 1.2-1.5 2.3-2.4 3.2l-1.1-1a.8.8 0 00-1.2 1.2l1 1c-.9.6-1.9 1.2-3 1.7zm20.4 12.4l1.3-.3a.8.8 0 00-.4-1.6l-1.3.3c-.1-1.1-.2-2.3-.1-3.4l1.3.3a.8.8 0 10.4-1.6l-1.5-.4c.3-1.3.7-2.6 1.4-3.8l1.4.8a.8.8 0 00.8-1.4l-1.3-.8 2-2.3 1 1A.8.8 0 00216 47l-.7-.7c1-.7 2-1.3 3.2-1.7l.3.5a.8.8 0 101.4-.9l-.1-.2 2.7-.5A19.3 19.3 0 01211.2 65a18 18 0 01-1.3-3.5zM122.6 243.2c-3.4 0-6.4-1.4-8.5-3.8-.3-.2-.5-.4-.6-.7a11.6 11.6 0 1118.2 0v.2l-.6.6a11.6 11.6 0 01-8.5 3.7zm0-1c3 0 5.7-1.2 7.7-3.2l-1.6-1.4-.5.5a.5.5 0 11-.7-.7l.6-.5c-.5-.6-.9-1.3-1.2-2l-.7.2a.5.5 0 01-.2-.9l.6-.1c-.2-.8-.4-1.7-.4-2.5h-.6a.5.5 0 010-1h.7c0-.6.2-1.2.4-1.8l-.7-.3a.5.5 0 01.2-.8l.9.2c.3-.7.7-1.3 1.2-1.9l-1-.5a.5.5 0 01.5-.8l1.1.6 1.4-1.1a10.7 10.7 0 00-15.5 0l1.3 1.1 1.1-.6a.5.5 0 01.5.8l-1 .5c.5.6.9 1.2 1.2 2l.8-.3a.5.5 0 11.3.8l-.8.3c.3.6.4 1.2.5 1.9h.7a.5.5 0 010 .9h-.7c0 .8 0 1.7-.3 2.5l.6.1a.5.5 0 01-.2 1l-.7-.3c-.3.7-.7 1.4-1.2 2l.5.5a.5.5 0 01-.6.7l-.5-.5c-.5.5-1 1-1.5 1.3 2 2.1 4.7 3.4 7.8 3.4zm-6.4-6l-.5-.4a.5.5 0 10-.6.7l.5.5-1.4 1.2a10.6 10.6 0 010-13.2l1 .8a.5.5 0 00.4.9l.3-.2c.4.5.8 1 1 1.7l-.5.1a.5.5 0 10.3.9l.7-.2.4 1.7h-.9a.5.5 0 100 .9h1c0 .8-.2 1.5-.4 2.2l-.8-.2a.5.5 0 00-.3.9l.8.2-1 1.6zm13.2.8l.5-.5a.5.5 0 00-.6-.7l-.5.5-1-1.6.7-.2a.5.5 0 10-.2-1l-.8.3c-.2-.7-.4-1.4-.4-2.2h1a.5.5 0 000-1h-.9c0-.5.2-1 .4-1.6l.7.2a.5.5 0 00.3-.9l-.6-.1 1.1-1.7.3.2a.5.5 0 10.4-.8l1.1-1a10.6 10.6 0 010 13.4l-1.5-1.3zM50.8 420.5a11.6 11.6 0 110-23.2 11.6 11.6 0 019 18.8l-.6.7a11.6 11.6 0 01-8.5 3.7zm0-1c3 0 5.7-1.2 7.6-3.2l-1.6-1.4-.5.5a.5.5 0 01-.6-.7l.5-.5-1.1-2-.7.2a.5.5 0 01-.3-.9l.7-.1c-.3-.8-.4-1.7-.4-2.5h-.7a.5.5 0 010-1h.7l.5-1.8-.8-.3a.5.5 0 01.3-.8l.8.2 1.2-1.9-1-.5a.5.5 0 11.5-.8l1.2.6 1.3-1.1a10.7 10.7 0 00-15.4 0l1.2 1.1 1.2-.6a.5.5 0 01.4.8l-1 .5c.5.6 1 1.2 1.2 2l.9-.3a.5.5 0 01.2.8l-.7.3c.2.6.4 1.2.4 1.9h.8a.5.5 0 010 .9h-.7c0 .8-.1 1.7-.4 2.5l.6.1a.5.5 0 01-.2 1l-.7-.3c-.3.7-.7 1.4-1.2 2l.6.5a.5.5 0 11-.6.7l-.6-.5c-.4.5-.9 1-1.4 1.3 2 2.1 4.7 3.4 7.8 3.4zm-6.4-6l-.6-.4a.5.5 0 10-.6.7l.6.5-1.4 1.2a10.6 10.6 0 010-13.2l1 .8h-.1a.5.5 0 00.4.9l.3-.2c.5.5.8 1 1.1 1.7l-.5.1a.5.5 0 10.2.9l.7-.2.4 1.7h-.8a.5.5 0 000 .9h.9c0 .8-.1 1.5-.4 2.2l-.8-.2a.5.5 0 00-.2.9l.7.2-1 1.6zm13.1.8l.6-.5a.5.5 0 00-.6-.7l-.6.5-1-1.6.8-.2a.5.5 0 10-.3-1l-.8.3c-.2-.7-.3-1.4-.3-2.2h1a.5.5 0 000-1h-1l.5-1.6.7.2a.5.5 0 00.2-.9l-.6-.1c.3-.6.7-1.2 1.2-1.7l.2.2a.5.5 0 00.5-.8h-.1l1.1-1a10.6 10.6 0 010 13.4l-1.5-1.3z" fill="currentColor"/><path fill-rule="evenodd" clip-rule="evenodd" d="M220.4 308.9c-2.1 0-4-1-5.3-2.4l-.4-.4a7.3 7.3 0 1111.4 0 7.2 7.2 0 01-5.7 2.8zm0-.6c1.9 0 3.6-.8 4.8-2l-1-1-.3.4a.3.3 0 01-.4-.5l.3-.3-.7-1.2h-.4a.3.3 0 11-.2-.5h.4l-.2-1.6h-.5a.3.3 0 110-.6h.5l.3-1.2-.5-.1a.3.3 0 01.2-.6l.5.2.8-1.2-.7-.3a.3.3 0 11.3-.5l.8.4.8-.7a6.7 6.7 0 00-9.7 0l.8.7.7-.4a.3.3 0 11.3.5l-.6.3.7 1.2.6-.2a.3.3 0 11.1.6l-.4.1.3 1.2h.4a.3.3 0 010 .6h-.4l-.2 1.5.3.1a.3.3 0 11-.1.6l-.4-.1-.8 1.2.4.3v.4c-.1.2-.3.2-.4 0l-.3-.2-1 .8c1.3 1.3 3 2 4.9 2zm-4-3.8l-.3-.3a.3.3 0 00-.4.4l.3.4-.8.7a6.7 6.7 0 010-8.2l.6.5a.3.3 0 00.2.5h.2c.3.2.5.6.7 1h-.4l-.2.4c0 .2.2.2.4.2l.4-.1.3 1h-.6a.3.3 0 000 .6h.6c0 .5 0 1-.2 1.4l-.5-.2a.3.3 0 10-.1.6l.4.1-.6 1zm8.2.5l.4-.4c.1 0 .1-.3 0-.4a.3.3 0 00-.4 0l-.3.3c-.3-.3-.5-.6-.6-1l.4-.1a.3.3 0 10-.1-.6l-.5.2-.3-1.4h.6a.3.3 0 100-.6h-.5l.2-1 .5.1a.3.3 0 10.1-.5l-.3-.1c.2-.4.4-.8.7-1h.1a.3.3 0 10.3-.5l.7-.6a6.7 6.7 0 010 8.4l-1-.8z" fill="currentColor"/></svg>
